<?xml version="1.0" standalone="no"?>
<!DOCTYPE svg PUBLIC "-//W3C//DTD SVG 1.1//EN" "http://www.w3.org/Graphics/SVG/1.1/DTD/svg11.dtd" >
<svg xmlns="http://www.w3.org/2000/svg">
<metadata></metadata>
<defs>
<font id="taco_saladregular" horiz-adv-x="1024" >
<font-face units-per-em="2048" ascent="1638" descent="-410" />
<missing-glyph horiz-adv-x="720" />
<glyph horiz-adv-x="0" />
<glyph unicode="&#xd;" horiz-adv-x="720" />
<glyph unicode=" "  horiz-adv-x="720" />
<glyph unicode="&#x09;" horiz-adv-x="720" />
<glyph unicode="&#xa0;" horiz-adv-x="720" />
<glyph unicode="!" horiz-adv-x="747" d="M14 872q0 45 19 78q8 0 14 -8l8 -14q0 -27 11 -103q8 -65 4 -104q-4 -6 -15 -6q-6 47 -10 59q-8 37 -27 51q-4 25 -4 47zM16 39q-8 22 25 55q6 -12 6 -24q0 -20 -14 -43q-12 0 -17 12zM59 1325q0 27 17 45q25 0 28 -6h129q80 0 125 -18q59 -4 103 67q12 4 22 -10 q-4 -12 6 -29q8 0 37 4q16 2 35 0q21 -2 33 -10q2 -37 -39 -205q-23 -47 -49 -174q-25 -119 -60 -174q-2 -12 -4 -143q-2 -68 -26 -146v-37q0 -25 -15 -32q-23 10 -51 10q-25 0 -98 -16l-37 14q-20 8 -39 4l-24 31q-18 72 -17 243q2 160 -26 242q-2 29 -13 121 q-10 76 -10 123q-27 86 -27 96zM115 184q0 33 22 68q23 29 45 59q10 2 54 27q29 16 53 16q14 0 26 -4l78 -4q47 -8 66 -35q77 -24 106 -118q-2 -27 -28 -101q-25 -66 -19 -102q-20 -4 -102 -41q-59 -27 -105 -27q-33 0 -63 15q-49 12 -76 49q-12 20 -37 84q-18 47 -16 82 q-4 16 -4 32zM518 618q0 23 25 74v-53q-2 -29 -21 -43q-4 10 -4 22zM666 1057q0 6 6 12q8 4 10 -8v-19q-8 -4 -12 7z" />
<glyph unicode="&#x22;" horiz-adv-x="1056" d="M35 1370q12 10 28 10q16 2 33 0q31 -4 33 -4q6 2 6 13q-2 12 0 14q8 12 19 10q39 -66 94 -61q45 16 112 16q113 -2 115 0q4 6 27 6q14 -18 14 -43q0 -8 -24 -86q0 -41 -9 -108q-10 -84 -12 -109q-25 -72 -22 -217q4 -152 -15 -221l-22 -29q-10 2 -68 -16q-57 12 -94 12 q-27 0 -41 -6q-12 8 -13 36.5t-3 30.5q-27 47 -27 125q2 127 0 129q-31 49 -52.5 160t-43.5 156q-37 158 -35 182zM547 1315q0 39 26 63q14 -8 33 -8q18 0 56 10.5t57 10.5q20 0 35 -9q20 -20 95 -27t91 -32q4 -10 4 -16t-21.5 -23.5t-21.5 -34.5q2 -57 -39 -149 q-43 -100 -47 -146q-2 -29 -20 -143q-14 -90 -15 -145q0 -47 8 -91q-4 -16 -34.5 -31.5t-34.5 -21.5q-27 0 -82 -2l8 8q-18 2 -47 23q2 16 -6 48t-8 46q0 8 5 25.5t5 25.5q0 18 -10.5 51t-10.5 52q0 10 6.5 30.5t6.5 30.5q0 18 -8.5 56t-8.5 57q0 18 9 35q16 16 16 41 q0 18 -11.5 52t-11.5 52q0 12 2 21q0 25 -13 70.5t-13 70.5z" />
<glyph unicode="#" />
<glyph unicode="$" horiz-adv-x="1124" d="M14 391q0 53 27 125t61.5 106.5t112.5 26.5q150 -61 174 -78q90 -59 90 -157q-20 -68 -73 -74q-10 -4 -19 -4q-41 0 -51 41q-4 8 -12 61q-6 41 -27 54q-29 -10 -74 -46q-2 -14 -2 -28q0 -74 92 -121q76 -37 158 -37q25 0 49 4q174 59 209 182v23q-111 115 -344 231 q-51 16 -106 54l-107 71l-55 78q-6 31 -6 64q0 182 149 317q121 43 164 37q39 16 39 72q0 14 -4 47t-3 51t-9.5 57t-10.5 58q0 27 15 43q51 4 147 24q20 2 94 -18v-37h-6q-8 -45 -8 -84q0 -49 14 -84q2 -8 2 -18q0 -12 -8 -38t-8 -36q0 -12 4 -23q16 -12 82 -26 q41 -10 76 -37q51 -39 67 -49q45 -27 68 -49q4 -31 4 -62q0 -59 -23 -162q-12 -55 -65 -88q-63 8 -129 15q-74 14 -121 41q-2 2 -45 10q-29 6 -35 26q-20 59 -37 144q20 31 74 76q25 2 68 -7.5t63 -9.5q10 0 19 2q-6 25 -37 37q-41 16 -47 23q-66 4 -84 4q-113 0 -144 -60 q2 -27 -16.5 -79t-18.5 -74q0 -23 13 -41q129 -115 178 -115q12 0 26 4q215 -76 314 -153q84 -84 90 -93q49 -59 41 -116q-121 -317 -352 -379q-51 -8 -43 -56q-4 -45 -4 -90q0 -86 14 -174q-76 -37 -227 -28l-15 14q6 51 6 106q0 92 -18 199q-45 33 -176 70q-14 12 -103 53 q-131 61 -131 180zM78 803q0 27 24 22q15 0 11 -14l-9 -27q-27 0 -26 19zM174 -14q0 10 8 20q6 -4 8.5 3t6.5 7t8 -2q4 -14 4 -24q0 -23 -19 -27q-16 10 -16 23zM569 471q0 6 2 12q10 16 25 17q14 0 26.5 -17.5t8.5 -31.5q-18 -27 -23 -29q-4 0 -10 6q-29 29 -29 43z M618 -342q10 10 29 6q15 -6 27 -47q-8 -8 -23 -6l-20 6q-12 6 -13 41zM618 1829q-6 12 0 29q6 8 19 6q14 -3 18 -15l-10 -28q-18 -6 -27 8zM696 1034q14 -43 56 -43q33 13 51 107q-16 33 -37 37q0 -20 -36 -50t-34 -51zM780 1522q0 10 4 18t7.5 16.5t11.5 4.5q8 -15 8 -74 q0 -2 -4 -6t-4 -6q-23 23 -23 47zM846 -233q0 37 12 59q14 -16 14 -45q0 -27 -10 -62h-12q-4 27 -4 48z" />
<glyph unicode="%" />
<glyph unicode="&#x26;" horiz-adv-x="1734" d="M41 229q0 29 27 142q10 43 32 65q63 78 76 90q45 47 98 68q23 23 81.5 51.5t78.5 48.5q4 20 -26.5 54t-32.5 43q-90 115 -90 270q0 59 18 115l68 98q45 53 96 69q10 4 47 37q31 31 61 31q14 0 29 -4q129 39 191 39q68 0 112 -31l51 -4q82 -51 95 -61q55 -43 65 -86 q39 -70 39 -154q0 -76 -39 -121q-141 -166 -366 -266q-14 -8 -15 -41q14 -29 62 -57q61 -37 73 -50l103 -79q27 23 41 114q4 10 0 74q-2 47 18 61q16 4 33 5q20 0 63.5 -7.5t63.5 -7.5q16 0 33 2l10 -22q-18 -16 -24.5 -72.5t-18.5 -71.5q2 -68 -16 -131q-6 -25 -39 -125 q0 -23 29.5 -47t29.5 -26q135 -47 158 -47q43 0 74 30q63 63 55 115q12 16 12 37q0 18 -12 39q-6 14 -47 28q-29 -14 -29 -34q0 -12 9 -35t9 -31q0 -20 -34 -25q-68 -10 -99 29q-39 70 -39 86q0 74 80 84l103 12q10 -6 73 -41q45 -25 68 -57q16 -96 16 -151l13 -9 q14 4 20 35t19 37q4 8 4 18t-6.5 28t-6.5 26q0 10 9 16q22 -82 22 -88q0 -31 -37 -72q-16 -16 -37 -20q-20 -23 -39 -100q-14 -63 -55 -82q-14 -45 -67 -72l-93 -31q-12 -4 -22 -4q-20 0 -65.5 30t-67.5 30q-33 14 -83 65t-83 66q-182 -154 -330 -154q-23 0 -45 2 q-121 -16 -235 -12q-84 -18 -129 -19q-82 0 -121 47q-119 94 -119 211zM178 1343q0 8 10 9v-29q-8 -4 -8 12q-2 6 -2 8zM262 774q18 -14 53 -37q-6 -6 -12 -6q-2 0 -12 5t-17 5q-12 29 -12 33zM313 686q0 29 33 25q2 -10 -31 -33q-2 4 -2 8zM371 381l37 -119q25 -80 55 -119 q39 -49 115 -49q57 0 106 8q119 4 207 158q4 16 -27 53q-33 16 -89 82t-99 80q-27 16 -76 70q-45 47 -78 65q-152 -66 -151 -229zM481 -150q-2 8 17 17q4 2 12 -4q2 -4 2 -8q0 -8 -14 -9q-8 -4 -17 4zM530 995q0 -53 19 -98q20 -23 43 -45q29 -31 47 -31q8 0 18 4 q27 25 95.5 45.5t95.5 42.5q90 57 90 211q0 49 -10 127q-31 47 -105 60q-23 10 -47 10q-61 0 -172 -102q-74 -102 -74 -224zM537 399q0 10 16 17q28 0 12 -25q-8 -14 -24 -4q-4 6 -4 12zM621 184q-2 18 6 19q18 0 18 -23l-8 -14q-16 0 -16 18zM741 1049q-6 41 39 71 q15 4 25 -16q-6 -23 -10 -45q-10 -27 -27 -35q-6 4 -27 25zM827 -184q2 0 9.5 9t15.5 5q4 -12 4 -18q0 -18 -16 -19q-12 0 -13 23zM854 1561q0 6 2 14q2 10 0 14l8 8q8 -2 6 -16q-4 -20 -2 -22q-10 -4 -14 2zM1626 -2q0 4 14 33q4 0 20.5 13t22.5 13q11 0 9 -20 q-12 -35 -13 -37q-10 -20 -24 -27q-29 0 -29 25z" />
<glyph unicode="'" horiz-adv-x="669" d="M35 1370q12 10 28 10q16 2 33 0q31 -4 33 -4q6 2 6 13q-2 12 0 14q8 12 19 10q39 -66 94 -61q45 16 112 16q113 -2 115 0q4 6 27 6q14 -18 14 -43q0 -8 -24 -86q0 -41 -9 -108q-10 -84 -12 -109q-25 -72 -22 -217q4 -152 -15 -221l-22 -29q-10 2 -68 -16q-57 12 -94 12 q-27 0 -41 -6q-12 8 -13 36.5t-3 30.5q-27 47 -27 125q2 127 0 129q-31 49 -52.5 160t-43.5 156q-37 158 -35 182z" />
<glyph unicode="(" />
<glyph unicode=")" />
<glyph unicode="*" />
<glyph unicode="+" />
<glyph unicode="," horiz-adv-x="729" d="M43 -332q6 12 7 59.5t16.5 66t19.5 54.5v60q2 25 21.5 70t23.5 83q6 70 27 93q31 18 32 82q2 76 13 94q2 39 10 119q8 74 51 94q20 -18 96 -23.5t97 -25.5q14 -29 102 -62q76 -27 76 -70q0 -10 -30 -22t-34 -31q-12 -53 -82 -143q-80 -102 -98 -143l-86 -189 q-49 -111 -55 -196q-10 -14 -45 -21.5t-43 -13.5q-18 0 -49 11t-39 11l10 4q-18 8 -41 39z" />
<glyph unicode="." horiz-adv-x="622" d="M47 197q12 27 51 71.5t52 73.5q61 39 124 39q86 0 181 -123q37 -49 37 -115q0 -57 -37 -92q-63 -43 -183 -141q-33 -14 -65 -14q-25 0 -50.5 9t-40 65.5t-38.5 64.5q-12 23 -14.5 81t-16.5 81z" />
<glyph unicode="/" />
<glyph unicode="0" horiz-adv-x="1466" d="M-186 545q-4 35 25.5 95t29.5 89q0 12 -4 27q16 18 29 18q12 0 22 -43q12 -51 18 -57q-2 -37 -34 -74q-33 -27 -64 -55h-22zM-82 920q0 18 29 32q27 7 35 -22q0 -27 -31 -37q-29 -8 -29 12q-4 6 -4 15zM0 1399q0 53 57 96q6 2 27 8q14 2 16 -12q0 -10 -16 -44t-16 -50 q-6 -16 -31 -51q-25 0 -35 30q-2 10 -2 23zM10 221q0 14 10 35q49 -4 82 -68q39 -76 68 -88q4 -12 4 -20q0 -12 -8 -17q-14 -4 -26.5 17.5t-16.5 23.5q-10 18 -66 58q-47 35 -47 59zM27 674q0 27 10 47q6 98 6 149q0 31 -2 43q4 14 34.5 39t37.5 43q-4 20 -4 41q0 53 69 199 q31 12 80 79.5t82 82.5q4 31 78 30q23 0 33 9q23 0 62.5 13t57.5 15q102 -23 369 -86q129 -35 203 -114q57 -61 114 -199q23 -55 19 -104q12 -16 14 -78t21 -76q4 -18 4 -35q0 -43 -25 -76q-2 -59 -2 -118q0 -72 31 -109q8 -23 8 -43q0 -37 -27 -92q-35 -72 -40 -92l-78 -99 q-51 -53 -115 -55q-143 -53 -197 -98q-8 -14 -51 -25.5t-51 -25.5q-16 -2 -33 -2q-45 0 -198 49q-16 16 -88 51q-61 31 -82 63q-207 39 -314 314q-20 53 0 118q0 25 -13 71t-13 71zM143 1298q1 11 17 25q-2 -10 -17 -25zM285 1047q10 -109 10 -179q0 -35 -2 -61 q4 -23 2 -178q-2 -111 45 -160q2 -37 86 -121q23 -49 100 -86q117 -55 121 -59q10 4 19 4q14 0 39.5 -13.5t35.5 -15.5q14 14 74 17q49 2 55 43q57 12 101 86q16 31 57 106q14 26 14 53q0 12 -6 52q-6 33 -4 49q8 61 8 114q0 303 -174 471q-31 14 -73 56q-18 8 -41 8 q-25 0 -73 -12.5t-73 -12.5q-18 14 -35 15q-10 0 -39.5 -16.5t-42.5 -16.5q-12 0 -24 6q-18 -29 -57 -39q-61 -16 -68 -20q-37 -14 -55 -90zM563 1030q0 6 8 17q12 25 47 24q13 0 17 -8q8 -49 -29 -55q-43 0 -43 22zM637 598q0 33 20 72q43 43 68 55q120 -15 149 -107 q10 -16 11 -34q0 -23 -16.5 -49.5t-57.5 -65.5q-137 8 -172 106q-2 10 -2 23z" />
<glyph unicode="1" horiz-adv-x="1282" d="M10 608v23q6 2 10 2q6 0 31 -25q2 -4 2 -8q0 -10 -16 -10q-27 6 -27 18zM29 803q0 35 71 94q74 29 155 64.5t134 97.5q8 25 64 71q43 37 34 87q98 59 113 122q10 8 31 50q14 31 39 30q10 0 20 -4q20 -16 47 -16q16 0 57.5 10t63.5 6q27 14 80 15q74 2 86 4l14 -15 q0 -45 15.5 -136t15.5 -136q0 -33 -12.5 -101.5t-12.5 -111.5q0 -41 9.5 -130t7.5 -136q-4 -105 8 -277q-10 -18 -10 -47q0 -14 5 -44t5 -44q0 -31 -12 -49q4 -18 4 -37q0 -18 -8.5 -57t-8.5 -58q0 -23 9 -43q-8 -10 -52.5 -18t-52.5 -23q-10 -4 -20 -4t-34 18.5t-32 18.5 q-12 0 -26 -10q-160 10 -273 10q-88 0 -147 -6l-8 14q2 43 29.5 132t27.5 137q0 23 -4 43q4 14 8 61q2 37 29 47q-4 20 -4 43q0 41 13 120t13 120q0 55 -18 100q-2 8 4 43q4 25 -8 39q-47 0 -113 -63.5t-96 -67.5q-23 -6 -80 -70.5t-98 -64.5q-14 0 -29 4q-4 -8 -19 -8 q0 119 -34 176zM186 1114q-6 29 23 35q10 4 18 4q21 0 35 -23q6 -23 -37 -45q-6 -2 -10 -2q-20 0 -29 31zM356 643q-2 10 10.5 25.5t22.5 15.5q35 0 35 -27q0 -31 -31 -30q-6 -2 -37 16zM516 -96q0 14 16 33q6 -4 50 -3q35 2 41 -16q-27 -41 -95 -41q-12 12 -12 27zM1116 -4 q0 14 12 39q6 4 11 4q18 0 18 -27q0 -6 -2 -14l-8 -12q-8 -12 -19 -11q-12 4 -12 21z" />
<glyph unicode="2" horiz-adv-x="1523" d="M-18 696q-6 25 24 25q11 0 19 -4q8 -25 -25 -35zM6 1442q6 53 62 71q65 0 73 -18q-8 -33 -92 -84q-12 -2 -43 31zM27 203q0 18 36 55q96 10 242 96q158 96 236 113q16 -2 30 -2q76 0 125 51l99 102q63 43 75 125q6 39 -4 158q-8 102 6 156q-14 70 -75 84q-20 4 -125 8 q-80 2 -113 39q-70 4 -135 -92q-6 -18 -6 -39q0 -20 9 -66.5t7 -70.5q-4 -37 27 -62q31 -16 59 -35q12 -4 25 -4q47 0 84 43q10 20 10 39q0 14 -6 29q-6 2 -12 2q-10 0 -33 -14.5t-31 -14.5q-10 0 -20 8q-2 2 -25 33q-12 20 -12 37q0 10 6 23q20 -2 67.5 23.5t61.5 25.5 q37 0 65 -58q25 -49 25 -92q0 -18 -4 -37q-41 -113 -137 -170q-106 0 -148 6q-84 12 -125 68q-10 4 -82 57q-59 59 -59 164q0 59 20 148q102 143 105 145q70 82 143 88q70 35 119 35q27 0 51 -10q12 2 60 12q39 10 57 10q29 0 49 -12q20 -20 51 -21q18 0 54 8.5t55 8.5 q102 -10 162 -103q8 2 16 3q33 0 45 -74q10 -53 27 -66q102 -94 102 -190q0 -35 -10 -62q-10 -63 -62 -166q-41 -82 -84 -161q-41 -51 -143 -139.5t-145 -141.5q51 -12 110 -12q70 0 202 21.5t194 23.5q12 8 37.5 8t31.5 2l19 -29q-39 -158 -33 -249q37 -32 33 -48 q-23 0 -65 -10t-64 -10q-45 0 -76 35q-61 -12 -230 -12q-147 0 -227 -27q-53 -8 -123 -8h-35q-57 2 -49 2h-82q-172 0 -266 -62q-31 -8 -57 -8q-61 0 -99 37q8 127 -34 227q-2 10 -2 19zM356 -121q2 25 41 37l66 21l29 -5q8 -23 -50 -38q-68 -20 -86 -15zM424 526l4 11 q10 27 12 30q12 20 33 27q31 10 39 -25q-12 -57 -49 -67q-27 0 -39 24z" />
<glyph unicode="3" horiz-adv-x="1193" d="M35 256q0 131 172 248q29 2 92 -9.5t96 -7.5q88 -41 99 -108q0 -20 -22.5 -67.5t-18.5 -73.5q-4 -37 -43 -33q-49 6 -58 0q-16 45 -65 125q-23 0 -33 -43q-4 -8 -4 -19q0 -35 37 -47q25 -4 54.5 -53t61.5 -47q184 12 279 237q-2 10 -2 25q0 16 4 49t4 49q0 43 -31 70 q-4 4 -69 39q-37 20 -72 20q-10 0 -22 -2q-25 2 -68 -4q-51 -6 -70 -6q-25 0 -45 6q-12 23 -12 49q0 16 41 133q20 8 96 17q61 8 92 33q14 -4 27 -5q35 0 82 46q55 53 74 59q12 18 12 41q0 29 -45 104q-14 61 -137 101q-92 12 -217 -88q-2 -12 -9 -43q-4 -29 9 -43 q51 -55 104 -52q10 6 10 25q0 10 -2 23q-49 49 -49 65q18 33 57 33l66 -31q41 -18 55 -43q-18 -78 -20 -82q-16 -43 -51 -63q-88 -49 -185 -49q-27 0 -51 2q-154 113 -137 249q4 41 42 118t44 116q104 111 256 111q49 0 133 -23q94 -27 131 -31q25 2 45 2q80 0 105 -30 q47 -92 92 -125q2 -33 37 -121q28 -74 20 -125q-20 -14 -20 -43q0 -10 3 -30.5t3 -31.5q0 -37 -31 -53q-70 -59 -229 -98q0 -2 -15.5 -10.5t-15.5 -14.5t2 -10q96 -29 121 -39q74 -33 92 -78q31 -10 41 -14q31 -16 31 -74q0 -29 -20.5 -86t-18.5 -90q-109 -283 -355 -346 q-29 -14 -65 -14q-12 0 -129 22q-25 -4 -49 -4q-90 0 -158 55l-135 111q-43 68 -43 127zM57 1169q-8 51 17 66q6 4 14 4q21 0 21 -16q0 -6 -7 -13q-4 -27 -28 -65q-8 -4 -13.5 6t-3.5 18zM565 420q2 10 17 10q12 0 12 -10q0 -20 -12 -21q-23 0 -17 21zM612 1567q0 10 6 18 q12 20 37 21q8 0 32 -5.5t36 -3.5l12 -16q0 -43 -28 -68q-8 -4 -19 -4q-10 0 -28.5 10.5t-24.5 12.5q-23 16 -23 35zM1022 133q0 25 20 39q17 0 21 -10q4 -12 -4 -21q-14 -18 -17 -20q-20 0 -20 12zM1051 221q0 14 12 37l18 33q4 8 29 26q14 -12 14 -30q0 -10 -7 -30.5 t-7 -31.5q-29 -29 -47 -32q-12 12 -12 28z" />
<glyph unicode="4" horiz-adv-x="1554" d="M53 621q61 74 193.5 203.5t191.5 195.5l137 131q82 86 103 154l41 53q29 29 57 22q10 18 65.5 23.5t67.5 15.5q41 -37 121 -37q18 0 57 3.5t58 3.5q25 0 43 -5q4 -109 -10 -319q33 -145 26 -242q0 -10 -4 -36.5t-4 -41.5q0 -45 29 -57q14 -2 40.5 10.5t39.5 12.5 q18 0 32 -19q10 4 19 4q16 0 53 -28q0 -18 6 -55.5t6 -55.5q0 -47 -41 -68q-6 -27 -32 -32q-10 4 -19 4q-14 0 -35.5 -24.5t-29.5 -24.5q-16 -39 -17 -88q0 -35 11.5 -110t9.5 -114q12 -10 12 -32v-35q-31 4 -53 4q-31 0 -43 -8q-88 -43 -211 -43q-76 0 -152 18 q-57 -14 -168 -47q-6 25 -20 76q2 80 2 145q0 135 -10 219q-6 16 -27 17q-29 0 -33 2q-127 27 -159 26q-47 0 -84 -18q-39 -10 -119 -18.5t-117 -24.5q-41 84 -33 240zM205 133q4 58 84 68q-2 -8 -22.5 -37t-20.5 -43q-8 -4 -17 -4q-20 0 -24 16zM422 1436q10 10 29 10 q38 0 38 -31q-16 -41 -51 -22q-16 8 -16 43zM514 676q8 -10 31 -10q43 0 55 13t12 60q0 57 -26 62q-23 -29 -45 -56q-23 -35 -27 -69zM590 264l31 -8q-12 -2 -21 -2q-10 0 -10 10zM1329 1061q-2 29 43 55q33 19 33 -4q-6 -49 -37 -68q-31 0 -39 17z" />
<glyph unicode="5" horiz-adv-x="1306" d="M2 272q0 29 8 86q35 135 189 248q63 18 114 19q74 0 103 -41q8 4 22 4t33 -4q12 -6 16 -21q2 -6 0 -24q-2 -16 -2 -25q-10 -16 -6 -39l6 -35q-8 -8 -45 -71q-25 -43 -59 -43q-14 0 -29 4q-8 14 -33 37q-29 0 -65 -60q-2 -31 22 -63l48 -62q100 -6 194 39q115 55 115 148 v18q0 47 42 65.5t50 39.5q20 123 20 110q0 43 -34 66q4 12 4 24q0 59 -45 76q-53 27 -135 29q4 0 -142 -4q-31 0 -106 -58q-102 -18 -123 -18q-59 0 -90 37q43 141 43 329q0 125 -19 281q8 45 8 49q8 31 23 43q82 -2 416 -59q35 23 80 22q25 0 70.5 -9t70.5 -9q23 0 43 4 q35 -12 80 -12q29 0 87 8t87 8q61 0 100 -27q12 -27 11 -73q-2 -62 0 -74q-16 -25 -54 -25q-8 0 -24 2h-25q-37 0 -55 -24q-49 -8 -96 -8q-70 0 -140 18q-27 -6 -65 -6h-72q-90 0 -129 -49q-37 -2 -43 -56q-8 -66 -22 -79q-6 -31 18 -54q23 -14 47 -28q227 -18 340 -97 q27 2 74 -51q12 -31 76 -96q57 -59 67 -113q14 -162 -88 -258q-27 -14 -52.5 -85.5t-47.5 -88.5q-41 -23 -135 -57q-109 -96 -156 -96q-25 0 -51 14q-18 12 -37 12q-8 -2 -70 -16q-16 -16 -39 -17q-8 0 -16 3q-16 12 -57 20q-47 8 -62 16l-121 125q-61 63 -133 107 q-4 6 -4 24zM707 1077q10 8 34.5 8t34.5 7q80 37 166 36q30 0 59 -4q-10 -23 -81 -41q-2 -2 -80 -32q-51 -20 -82 -21q-25 0 -47 10q-2 4 -2 17q0 14 -2 20zM1145 989q14 47 61 62q19 0 37 -29q0 -33 -51 -64q-31 -6 -47 31z" />
<glyph unicode="6" horiz-adv-x="1536" d="M51 625q0 27 19 145q10 66 32 104q-6 39 -6 62q0 14 2 20q29 53 70 168q37 25 88 142q43 100 113 116q33 23 94 33q72 12 99.5 18.5t94.5 6.5q68 0 168 -4l76 -43q88 -35 94 -37q57 -29 68 -66q2 -10 11 -44t9 -50q0 -10 -2 -18q-63 -100 -114 -185q-12 -18 -70 -30 q-39 2 -119 69q-2 8 -16 39q-10 23 -10 41t16 29q45 0 53 22q6 14 -7 41t-15 35q-33 29 -82 29q-27 0 -76 -13.5t-70 -15.5q-8 -27 -70.5 -66.5t-70.5 -70.5q-57 -98 -57 -207q0 -33 6 -66q8 -2 20 -2q70 0 146 78q55 23 268 35l293 -18q23 -35 72 -97q-4 -20 -4 -41 q0 -59 43 -171.5t43 -172.5q14 -36 14 -69q0 -51 -57.5 -141.5t-61.5 -131.5q-74 -70 -209 -86q-33 -4 -239 -24q-23 2 -77.5 -18.5t-76.5 -20.5q-20 0 -39 8q-164 96 -231 227q-51 63 -142 195l-57 119q-33 68 -33 127zM72 174q0 14 12 33q0 27 29 26q14 0 16 -18 q0 -10 4 -35q-20 -31 -49 -30q-12 10 -12 24zM379 498q6 -55 57 -76q-6 -12 -6 -23q0 -12 19.5 -36.5t21.5 -32.5q20 -37 101 -77t100 -63q41 -6 78 -6q119 0 194 54q45 12 47 59v65q2 39 15 64q22 26 22 53q0 18 -28.5 73.5t-28.5 84.5q-16 39 -70 57q-76 27 -88 35 q-96 12 -250 -96q-14 -41 -88 -74q-82 -37 -96 -61zM539 526q0 25 14 25q6 0 22 -23l-16 -18q-20 0 -20 16zM629 1116q10 12 30 21q8 2 15 2q10 0 16 -6q4 -12 -26 -43q-4 -2 -9 -3q-14 0 -26 29zM762 395q0 25 33 72q12 18 41 18q43 0 55 -32q0 -12 17.5 -44t17.5 -44 t-8 -27q-12 -31 -97 -55q-29 -4 -39 34q-20 84 -20 78zM1274 1108q0 10 4 25q16 33 53 61q12 -31 12 -53q0 -15 -4 -25q-8 -2 -39 -45q-27 10 -26 37zM1337 219q0 35 15.5 96.5t17.5 90.5q4 -6 21 -52q9 -28 36 -28q4 -12 5 -21q0 -18 -19 -18q-8 8 -22 2q-10 -4 -23 -53 q-4 -12 -4 -23q0 -8 2 -14q12 -16 16 -54q-4 -4 -8 -4l-31 31q-6 23 -6 47z" />
<glyph unicode="7" horiz-adv-x="1509" d="M-2 920v45q-2 31 20 39q11 -13 11 -46q0 -18 -2 -34v-17q-25 0 -29 13zM8 291q37 39 92 125q143 106 306 334q217 305 276 370q0 4 4 19q2 10 0 16l-18 14q-287 -8 -457 -49q-8 -33 -39 -33q-14 0 -46 8.5t-48 6.5q-37 33 -37 155q-20 53 -14 78q94 66 135 66 q20 0 41 -10q59 18 133 18q63 0 201 -20q131 -18 200 -17q172 6 373 19q133 31 160 30q49 0 88 -20q6 -25 0 -84q-6 -57 4 -88q-4 -39 6 -109q12 -75 12 -106q-10 -10 -54 -28.5t-60 -45.5q-39 -49 -265 -291q-160 -172 -223 -303q-14 -29 -112 -119q-80 -72 -80 -141 q0 -14 4 -31q-8 -41 -53 -55q-2 0 -84 -10q-47 -6 -80 10q-90 139 -207 162q-14 14 -86 57q-55 33 -72 72zM174 -23q29 29 47 19q22 -13 55 -64q0 -2 -3 -6t-3 -6t2 -2q-23 -8 -47 -2q-12 2 -41 10q0 8 -6 24.5t-4 26.5zM285 862q-6 45 32 45q10 2 23 -8l10 -10 q4 -25 -28 -45q-18 0 -37 18zM713 1556q4 18 20 19q27 0 27 -27q8 -49 -23 -55q-33 10 -24 63zM786 61q-12 8 0 37q6 6 15 6q16 0 22 -20q4 -16 -10 -25q-12 -6 -27 2zM1059 475q2 12 21.5 29.5t23.5 25.5l65 82q37 45 78 70l27 -4q8 -49 -57 -113q-72 -68 -76 -100 q-4 -2 -15.5 -18.5t-23.5 -16.5q-6 0 -17 4q-29 29 -26 41zM1423 1014q0 18 13 33l14 4q12 -16 12 -35q0 -17 -8 -35q0 -8 -14 -8q-16 23 -17 41z" />
<glyph unicode="8" horiz-adv-x="1413" d="M-41 731q-6 35 16 51q12 -2 39 -55q-10 -18 -16 -18q-33 -6 -39 22zM55 43q0 8 7.5 14t13.5 2q-4 -10 -17 -24q-4 4 -4 8zM57 473q0 127 70 180q23 4 127 74q8 10 29.5 25.5t29.5 25.5q-8 27 -70.5 56.5t-68.5 52.5q4 31 -25.5 96.5t-29.5 85.5q0 39 43 68q-6 90 65 147 q2 2 138 100q37 35 159 78q43 -10 113 -45l225 -20q129 -25 156 -125q59 -55 86 -135q-6 -20 -6 -52q0 10 2 -4v-37v-38q0 -84 -51 -103q-4 -29 -82 -86q59 -43 123 -125q86 -111 114 -135q0 -25 3 -70.5t3 -70.5q0 -104 -36 -166q-20 -8 -74 -84q-41 -57 -99 -49 q-16 -25 -103 -52.5t-105 -64.5q-35 -29 -76 -29q-35 0 -92 27q-70 33 -86 37q-8 6 -19 6q-8 0 -26.5 -13.5t-26.5 -13.5t-21 9q-170 68 -253 172q-10 37 -72 108q-57 66 -62 113q-2 23 -2 57zM350 1051q0 -102 92 -119q16 -2 109 -17q37 -37 94 -36q29 0 62 8q61 29 67 33 q37 25 41 57q14 12 33 50t37 50q4 23 4 41q0 33 -12 49q-109 100 -326 95q-20 8 -41 8q-53 0 -131 -86q-29 -74 -29 -133zM365 541q0 -18 4 -43q-2 -14 -2 -27q0 -94 75 -152q25 0 56.5 -29.5t44.5 -33.5q104 -35 174 -35t114 33q20 8 46 62.5t47 64.5q10 30 10 61 q0 86 -60 146q-14 6 -83 61q-51 41 -97 35q-8 0 -17 -12.5t-13 -14.5q-8 23 -31 27h-47q-27 0 -82 -34t-90 -32q-49 -10 -49 -77zM594 385q-18 51 4 86q39 49 107 49q14 0 28 -2q45 -20 78 -74q6 -18 6 -32q0 -33 -33 -72q-41 -49 -47 -68q-23 -16 -37 -16t-16 55 q0 31 -29 31q-47 2 -61 43zM688 1044q0 35 37 27q18 -4 12 -24q4 -8 -12 -35q-18 -8 -23 -4q-14 20 -14 36zM784 1589q0 6 4 15q14 18 48 34q12 2 20 2q29 1 29 -24q0 -33 -39 -72q-6 12 -34 23.5t-28 21.5zM1153 713q6 27 51 49q19 6 27 -31q-6 -35 -27 -47q-35 8 -51 29z M1233 1087q0 18 14 19q16 0 17 -16v-9h-29q-2 2 -2 6zM1239 627q8 27 12 30q6 14 23 25q29 7 35 -16q8 -25 -23 -66q-6 -2 -12 -2q-20 0 -35 29z" />
<glyph unicode="9" horiz-adv-x="1396" d="M-8 18q0 6 2 15q27 0 84 -51v-21q-6 -10 -25 -12q-16 -2 -26 8q-2 6 -18.5 26.5t-16.5 34.5zM35 965q0 18 4 36q-6 49 33 111l65 102q109 168 289 220q31 2 98.5 -24t102.5 -17l282 -64q14 -14 86 -51q55 -29 60 -72q76 -55 119 -133q0 -23 10 -82q10 -51 6 -82 q25 -29 16 -96q-4 -14 -4 -33q0 -14 4 -45t4 -45q0 -33 -22 -110q-10 -39 -45 -52l-56 -153q-33 -92 -81 -137q-47 -33 -107 -88q-88 -84 -104 -97q-147 -80 -299 -80q-45 0 -86 9q-176 14 -287 96q-2 33 -39 98.5t-37 99.5q0 18 6 37q147 268 344 256q55 -4 103 -41 q2 -2 78 -75q12 -27 12 -58q0 -47 -39 -127q-16 -23 -35 -22q-10 0 -30.5 14t-45.5 14q-16 0 -39 -6q-16 0 -49 8.5t-49 8.5q-35 0 -45 -35q4 -49 72 -66q76 -72 155 -71q31 0 58 12q18 31 100 49q18 31 102 100q70 57 84 111q76 86 76 154q0 12 -2 26q8 8 8 27.5t2 23.5 q-18 4 -79 -22q-109 -35 -216 -35q-125 0 -208 51q-109 25 -127 31q-82 25 -105 64q-12 39 -82 124q-61 76 -61 136zM303 967q0 -84 72 -162q203 -92 311 -84q82 31 102 43q57 33 74 82q21 18 21 47t-25 80q-10 14 -27 69q-12 47 -40 60q-41 59 -138 59q-20 0 -60 -3t-61 -3 q-45 0 -77 10q-59 2 -99 -51q-18 -25 -47 -100q-6 -23 -6 -47zM598 930q0 14 4 24q33 59 76 64q55 0 96 -53q10 -31 10 -58q0 -26 -10 -49q-29 -35 -59 -45q-61 -8 -92 29q-25 76 -25 88zM702 522q0 14 17 15q15 6 31 -19q4 -12 -9 -29q-23 -6 -34 17q-4 10 -5 16zM791 -102 q4 12 20 30q16 2 26.5 -6t8.5 -24q4 -10 -17 -21q-25 0 -38 21zM1182 254q4 20 8 27q6 14 20 16q18 6 47 -21q4 -31 -30 -47q-33 0 -45 25zM1182 1333q31 31 73 31q35 0 56 -23v-30q-2 -20 -17 -21q-53 29 -108 23q0 6 -4 20z" />
<glyph unicode=":" horiz-adv-x="649" d="M53 1022q0 88 58 133q33 27 118 62q25 10 64 10q98 0 135 -68q23 -72 84 -213q6 -68 -27 -112q-14 -25 -45 -25q-10 0 -28.5 3t-28.5 3q-29 0 -43 -22q-14 -4 -29 -5q-18 0 -54 11.5t-54 11.5q-12 0 -27 -4q-23 20 -56.5 69.5t-56.5 69.5q-10 37 -10 76zM68 422 q12 27 51 72t51 73q61 39 125 39q86 0 180 -123q37 -48 37 -114q0 -57 -37 -93q-63 -43 -182 -141q-33 -14 -66 -14q-25 0 -50 9t-39.5 65.5t-39.5 64.5q-12 23 -14 81t-16 81z" />
<glyph unicode=";" horiz-adv-x="698" d="M-61 201q0 12 4 20q16 25 32 25q8 0 15 -8q-9 -48 18 -58q-4 -25 -28 -24q-12 0 -33 8q-8 20 -8 37zM-18 -332q6 12 7 59.5t16 66t20 54.5v60q2 25 21.5 70t23.5 83q6 70 26 93q31 18 33 82q2 76 12 94q2 39 11 119q8 74 51 94q20 -18 96 -23.5t96 -25.5q14 -29 103 -62 q75 -27 75 -70q0 -10 -29.5 -22t-33.5 -31q-12 -53 -82 -143q-80 -102 -98 -143l-86 -189q-49 -111 -56 -196q-10 -14 -44.5 -21.5t-43.5 -13.5q-18 0 -49 11t-39 11l11 4q-18 8 -41 39zM74 1022q0 88 57 133q33 27 119 62q25 10 63 10q98 0 136 -68q22 -72 83 -213 q6 -68 -26 -112q-14 -25 -45 -25q-10 0 -28.5 3t-29.5 3q-29 0 -43 -22q-14 -4 -28 -5q-18 0 -54 11.5t-55 11.5q-12 0 -26 -4q-23 20 -57 69.5t-56 69.5q-10 37 -10 76zM342 715q-6 37 27 51q20 4 32 -39q-6 -10 -22 -31q-25 0 -37 19z" />
<glyph unicode="&#x3c;" />
<glyph unicode="=" />
<glyph unicode="&#x3e;" />
<glyph unicode="?" horiz-adv-x="1159" d="M29 1098q0 27 18 45q16 82 172 196q14 -2 52 20.5t55 16.5q55 18 94 23q41 25 123 53q25 -6 51 -6q27 0 51 6q45 -14 133 -49q25 -6 58.5 -33t48.5 -31q86 -4 129 -110q16 -16 36.5 -64.5t43.5 -64.5q8 -20 8 -43q0 -20 -10.5 -58t-10.5 -59q0 -37 -49 -147l-147 -164 q-100 -88 -211 -80q-45 2 -58 -29q0 -10 -11 -31.5t-11 -33.5q0 -14 16 -25q2 -20 -12 -51q-29 4 -86 0q-10 2 -20 2q-14 0 -44 -7t-45 -7q-27 0 -43 24q4 12 5 23q0 14 -13.5 40.5t-13.5 41.5q0 10 4 18q-4 12 -4 23q0 20 35 86q14 18 76 49q49 25 59 61q10 10 20 10 q8 0 22.5 -6t22.5 -6q10 0 21 8h16q14 16 84 54q94 51 94 184q0 57 -24 96q-55 35 -55 109q-10 14 -76 30q-35 23 -78 23q-27 0 -86 -12.5t-92 -10.5q-4 -8 -47 -18t-43 -29q0 -8 4 -18q-20 -27 -41 -51q-20 -31 -21 -64q0 -41 45 -65q53 -29 62 -45q20 6 35 32q8 20 18 43 q-6 20 -6 37q0 18 8 33q33 18 74 18q29 0 59 -8q6 -16 39 -63q27 -39 27 -68q0 -18 -8 -37q-119 -104 -197 -104q-16 0 -35 4q-8 -4 -16 -4q-12 0 -33.5 11t-34.5 11q-18 -2 -65 -2q-27 0 -43 35q-25 47 -52 68q-47 35 -51 67q-2 14 -14 52q-12 31 -12 51zM127 502 q0 18 16 18q14 2 25 -12q14 14 25 14q4 -2 6 -8q6 -35 -37 -49q-25 4 -35 37zM322 86q0 82 63 154q72 35 117 34q31 0 57 -16q109 -20 127 -106q2 -10 -8 -26.5t-10 -23.5q0 -8 12 -30q6 -15 6 -23q0 -10 -10 -18q-10 -14 -53 -21q-35 -43 -99 -51q-29 -4 -116 0 q-37 12 -70 53q-16 35 -16 74zM618 885q4 18 27 35q25 -1 29 -15q0 -25 -23 -47q-27 0 -33 27zM711 39q-6 23 6 27q22 6 28 -21q-6 -23 -12 -22q-10 2 -22 16zM846 1491l26 25q11 1 13 -5q2 -4 -2 -17t-4 -17t-13 -15q-20 -6 -20 29zM874 535q4 20 5 18q8 10 30 22 q15 -2 17 -18q2 -12 -6 -22q-31 -20 -39 -17q-8 6 -7 17z" />
<glyph unicode="@" />
<glyph unicode="A" horiz-adv-x="1677" d="M-18 -23v5q0 39 53 114q305 424 467 738q2 56 2 92t-2 53q-10 88 -62 127q-6 33 -39 51q-2 2 -57 27q-74 -10 -74 -45l-8 -49q-4 -29 12 -50q-6 -20 33 -39q18 2 23.5 43t19.5 41q12 0 29 -8q29 -23 29 -71q0 -18 -5 -41q-20 -39 -24 -43q-12 -23 -35 -35q-9 -1 -17 -1 q-46 0 -81 29q-74 90 -74 205q0 78 37 144q14 45 67 73q49 20 97 41q11 2 23 2q60 0 116 -45l102 -98q43 8 64 55l6 13q14 39 29 69q16 16 43 72q23 49 47 70q66 -14 115 -109q59 -113 96 -143q59 -104 170 -258q43 -61 71 -127q16 -37 58 -138q49 -66 92 -143l86 -158 q-2 -16 19.5 -51t21.5 -47t-8 -27l-4 -4q0 -6 16 -12q33 7 53 -20q0 -20 -22 -25q-35 -4 -39 -8q-18 -23 -66.5 -54.5t-66.5 -54.5q-55 -27 -166 -82q-41 -2 -101 -41q-66 -45 -92 -51q-10 4 -8 24.5t-5 29t-56 100.5q-37 66 -68 88l-33 -17q-88 27 -196 27q-78 0 -156 -14 q-16 -10 -39 -11q-12 0 -36.5 4.5t-37.5 4.5q-37 0 -45 -33q-4 -14 -28 -62q-20 -39 -21 -61q-14 -10 -55 -78q-29 -47 -74 -47q-14 0 -28 4q-18 20 -84 30.5t-84 24.5zM94 463q-4 7 -4 14q0 9 6 17q0 27 29 26q14 0 20 -14q2 -25 -28 -57q-16 0 -23 14zM518 485 q-2 -10 8 -28q33 -14 88 -15q10 0 33 2h33q76 0 115 -32q24 2 63 16q6 29 -16 53q-20 18 -39 37q-25 43 -58 141q-16 37 -61 95q-41 -37 -86 -135.5t-80 -133.5zM623 141q0 16 24 17q27 0 45 -25v-16q-6 -2 -14 -2q-20 0 -51 18q-4 4 -4 8zM631 1544q0 12 4 33q8 8 19 8h5 q15 0 21 -12q0 -33 -12 -57q-2 -4 -25 -5q-12 6 -12 33zM782 -78q0 31 29 31q14 0 34.5 -31t24.5 -33q0 -23 -16 -32q-8 -4 -16 -4q-20 0 -43 24q-12 27 -13 45zM1036 1448q-2 6 -2 12q0 21 23 35q39 -24 94 -145q0 -37 -21 -37q-35 12 -55 57q-31 70 -39 78zM1169 1233 q0 12 11 35q4 20 20 20q10 0 12 -12q0 -55 -24 -68q-18 4 -19 25zM1262 -96q0 14 6 30q8 4 16 5q33 0 33 -29q-2 -8 -17 -35q-6 -11 -15 -11q-2 0 -5 1q-18 16 -18 39z" />
<glyph unicode="B" horiz-adv-x="1468" d="M-66 942q0 39 29 39q15 0 19 -20q0 -41 -21 -41q-6 0 -12 4q-14 6 -15 18zM-31 680q0 20 4 41q17 -7 37 -68q-8 -23 -20 -67q-20 45 -21 94zM27 53q8 33 18 152q8 100 29 143q6 111 6 238q0 76 -2 157l-12 398q-12 35 -13 80q0 23 4 68.5t4 68.5q67 61 105 61h6h13 q53 0 141 -13q100 -15 147 -15q31 0 57 4q10 -2 52 -13q33 -10 51 -10q23 0 43 10q123 -23 239 -45q129 -25 220 -84q106 -143 106 -252q0 -59 -31 -110q-25 -63 -67 -129q-12 -18 -25 -37q-16 -25 -16 -41q0 -10 4 -22q76 -70 151 -140q79 -84 79 -163q0 -7 -1 -15 q-76 -158 -98 -192q-66 -100 -156 -152q-105 -40 -237 -40q-22 0 -45 1q-10 -6 -23 -6q-10 0 -35.5 8t-38.5 8q-39 4 -100 6q-68 2 -96 23q-106 -27 -176 -27q-37 0 -74 7q-14 10 -33 10q-10 0 -30.5 -3t-30.5 -3q-18 0 -31 8q-7 -2 -15 -2q-45 0 -89 63zM461 1761 q12 12 24 13q16 0 39 -21.5t29 -23.5l-8 -52q-8 -33 -27 -41q-18 41 -57 125zM494 -188q-1 2 -1 3q0 9 17 21q20 -10 20 -12q4 -8 -16 -29q-12 0 -20 17zM717 1030q0 -55 12 -151q12 -106 14 -150q26 -13 68 -13q14 0 29 1q104 59 116 69q103 72 103 129q0 16 -14.5 51 t-14.5 54q-12 6 -49 61q-24 36 -58 36q-5 0 -10 -1q-23 -10 -45 -10q-18 0 -52 9t-50 9q-23 0 -43 -12q-6 -39 -6 -82zM752 354q2 -18 16 -135q6 -23 37 -33q43 -14 51 -20q21 -2 40 -2q125 0 198 78q10 16 10 41q0 29 -10 65q-33 59 -115 86q-16 6 -148 35q-4 -2 -63 -37 q-16 -31 -16 -78zM842 1479q0 10 12 31.5t14 29.5q37 37 60 37h4q0 -10 -15.5 -32.5t-15.5 -33.5q-12 -23 -45 -57q-14 10 -14 25zM1290 778q10 16 25 17q22 0 23 -19q0 -6 -3 -14q-18 -12 -30 -12q-8 0 -15 28z" />
<glyph unicode="C" horiz-adv-x="1773" d="M45 780q4 135 98 297q39 68 183 264q86 119 297 119q61 0 184 -13t184 -13q37 0 68 4q18 -29 103 -52.5t108 -44.5q27 -45 123 -96q84 -45 104 -115q4 -27 4 -53q0 -199 -162 -391q-47 -10 -98 -10q-117 0 -188 47q-53 0 -109 43q-18 14 -84 78q-14 74 -14 119 q0 96 59 155q25 49 86 49q18 0 107 -16v-5q0 -22 -29 -61q-33 -43 -33 -61q0 -10 4 -20q27 -10 74 -78q43 -59 78 -60q20 0 45 11q49 27 49 77q0 27 -14.5 76t-16.5 70q-16 14 -30.5 57t-32.5 57q-82 18 -248 64q-74 -27 -223 -70q-29 -20 -76 -90l-70 -102 q-31 -109 -71 -330q-2 -16 -2 -32q0 -152 139 -271l131 -111q80 -45 182 -45q106 0 181 52q78 78 77 114q-14 25 -14 53q0 20 10.5 62.5t10.5 62.5q12 8 26 9q10 0 41 -11q25 -8 41 -4q12 -4 25 -4q35 0 107.5 26.5t103.5 26.5q59 0 82 -75q16 -27 16 -58 q0 -35 -29.5 -104.5t-32.5 -104.5q-25 -84 -104 -122q-16 -8 -160 -52q-102 -31 -149 -75q-15 2 -29 2q-58 0 -98 -33q-27 2 -62 2q-33 0 -98 -3t-98 -3q-154 0 -213 67q-115 90 -252 236l-240 254q-31 33 -35 117q-4 94 -16 118zM289 -53q6 10 22 10q35 0 35 -29 q-12 -57 -51 -57q-19 13 -19 34q0 18 13 42zM739 602l9 51q32 -12 32 -20q0 -4 -2 -10v-21h-39zM1364 1960v51q0 33 18 43q54 0 66 -63q1 -5 1 -10q0 -28 -28 -48q-45 0 -57 27z" />
<glyph unicode="D" horiz-adv-x="1357" d="M-63 1147q0 16 4 39q6 8 16 8q18 0 18 -14q0 -5 -2 -13q1 -8 1 -15q0 -35 -25 -50q-12 14 -12 45zM-41 641q0 51 14 74q23 6 27 -6q-4 -23 14 -58q4 -18 -22 -28q-14 0 -33 18zM49 1364q0 39 25 51q18 -3 62 13q35 13 55 13q5 0 8 -1q96 39 151 39q49 0 82 -27l51 6 q59 -6 181 -14q270 -55 450 -277q41 -31 53 -135q12 -111 39 -137q17 -50 17 -111q0 -31 -6 -108q-5 -58 -5 -95v-12q-27 -78 -55 -235q-53 -61 -143 -199q-72 -137 -295 -147q-53 -4 -195 -11q-17 -1 -34 -1q-80 0 -158 16q-23 0 -105 -15q-49 -8 -87 -8h-15q-10 23 -10 54 q0 47 28 131q1 9 1 19q0 51 -26 137q-30 102 -30 149q0 27 12.5 80t12.5 79q0 31 -9.5 94.5t-9.5 94.5q0 33 8 61q-6 61 -22 207q-14 127 -14 203q-16 66 -17 86zM342 -205q2 18 18 49q2 1 5 1q18 0 59 -31q0 -14 -29 -43q-4 -1 -8 -1q-20 0 -45 25zM723 961q8 -68 8 -205 q0 -96 -4 -230q10 -35 10 -80q0 -18 -2 -56t-2 -56q0 -47 12 -84q16 0 47 -5t48 -5q23 0 34 6q100 47 152 155q43 90 43 198v19q12 42 12 87q0 51 -16 120l-29 121q-29 27 -67.5 91.5t-65.5 88.5q-43 41 -97 41h-5q-72 -2 -72 -71q0 -14 3 -42t3 -42q0 -33 -12 -51zM774 954 q0 6 10.5 16.5t10.5 18.5q0 6 -7.5 22.5t-7.5 24.5q0 14 17 25q6 -6 4 -37q-4 -66 -4 -100q-23 14 -23 30zM844 477q0 8 22 55q43 0 45 -18q0 -61 -26 -70q-10 -4 -25.5 9.5t-15.5 23.5zM1188 1389q0 55 29 69q6 1 12 1q29 0 47 -25q2 -7 2 -13q0 -20 -35 -47q14 0 -31 -2 q-18 0 -24 17zM1225 412q6 53 10 71q9 45 27 72q0 -55 -2 -80q-4 -49 -35 -63z" />
<glyph unicode="E" horiz-adv-x="2095" d="M20 422l25 151q14 88 43 146l10 -6q4 -35 4 -66q0 -141 -75 -237zM94 63q0 27 12.5 76t14.5 70q-12 37 -12 82q0 66 28 170q9 293 9 444q0 86 -3 125q-16 225 -32 342q33 53 114 53q20 0 78 -6q34 -3 58 -3q12 0 22 1q51 4 100 4q59 0 177 -8t178 -8q115 39 278 39 q70 0 176 -6l176 -11l35 7q10 -4 27 -4q18 0 54 7t54 7q49 0 66 -43q-6 -18 -6 -37q0 -20 11 -57t11 -58q0 -18 -6 -32q-53 0 -346 -35q-49 2 -93 2q-191 0 -304 -35q-10 -18 -10 -39q0 -16 9 -49t9 -49q0 -25 -14 -43q-4 -10 -4 -21q0 -14 13 -41.5t13 -42.5 q45 -43 141 -55q117 -16 150 -29q45 -8 98 -8q82 0 273 35q43 -6 65 -84q6 -23 6 -39q0 -35 -39 -139q-96 -33 -248 -33h-18q-93 2 -155 2q-93 0 -115 -4q-18 -14 -96 -21q-66 -4 -84 -40l28 -189q30 -33 87 -33q14 0 30 2q40 5 70 5q39 0 59 -9q211 0 365 62q18 -10 47 -11 q12 0 38.5 3.5t39.5 3.5q51 0 65 -41q2 -12 2 -27q0 -18 -6 -54t-6 -55q0 -34 14 -59q-27 -47 -57 -47q-12 0 -21 8q-14 23 -94 23q-25 -20 -57 -21q-12 0 -84 17q-19 4 -36 4q-30 0 -52 -13q-53 -10 -185 -18q-121 -6 -180 -31q-57 2 -186 23q-121 18 -187 18 q-63 0 -118 -14q-55 20 -125 20q-10 0 -154 -14q-43 -4 -80.5 -4t-70.5 4q-16 27 -17 61zM1008 1014q0 45 34 45q37 0 37 -39q0 -10 -9 -36t-15 -26q-47 16 -47 56zM1569 -88q127 51 375 51q25 0 51 36t33 36q10 0 22 -10v-56q-25 -68 -127 -90q-131 -29 -158 -51 q-4 0 -98 -21q-55 -12 -98 -12q10 18 80.5 30.5t81.5 37.5q-12 14 -29 14q-10 0 -30.5 -6t-31.5 -6q2 0 -47 14q-28 8 -28 18q0 7 4 15zM1925 1042q0 16 19 23h6v-61q-10 0 -17 12q-8 23 -8 26zM1970 539q0 33 19 39q47 -1 51 -17q-14 -16 -51 -39h-17q-2 8 -2 17z" />
<glyph unicode="F" horiz-adv-x="1306" d="M-158 739q-2 18 52 47q4 0 12 2.5t12 2.5q-4 -14 -37 -30t-39 -22zM31 1456h112q68 0 109 -12q18 0 56 9t57 9q37 0 57 -22q12 -4 22 -4h-1q0 2 77 20h170q104 0 164 -12q16 4 45 4q55 0 156 -14q123 27 389 34l4 -12q2 -22 2 -45q0 -45 -33 -186q-23 -20 -115 -25.5 t-116 -30.5q-10 0 -107 -8q-49 -4 -104 -4q-90 0 -152 25q-8 1 -14 1q-43 0 -43 -55q0 -12 8 -38.5t6 -42.5q0 -115 -20 -142q0 -4 -4 -37q-2 -23 0 -37q6 -18 24 -24q25 14 51 14q23 0 66 -12t66 -12q37 0 65 26q47 -10 47 -78v-69q0 -55 -4 -39q-39 -66 -59 -66 q-12 0 -31 15q-7 -2 -18 -2q-23 0 -63 8q-62 12 -85 12q-51 0 -80 -37q16 -145 45 -426q6 -14 6 -30q0 -57 -57 -107q-70 -8 -111 -43q-47 39 -131 39q-55 0 -133 -16q-139 0 -196 28q-4 2 -11 2q-12 0 -32.5 -8t-24.5 -8q-12 0 -12 18q18 17 18 55q0 14 -2 31 q-15 21 -15 62q0 12 1 26q3 31 3 53q0 30 -5 44q6 37 6 80q0 37 -7 110.5t-7 110.5q0 29 2 53q26 22 26 63q0 19 -6 60t-5 61.5t-9 53.5q-12 43 -15 51q6 55 7 112q0 86 -15 207zM248 -133q6 18 39 35q14 0 24 -31q0 -29 -28 -29q-29 0 -35 25zM850 543q16 16 39 16 q29 1 45 -24q-6 -45 -37 -58q-23 4 -47 66zM901 84q0 14 4 31l13 22v-14q-6 -25 -7 -41q0 -16 7 -23q18 -4 41.5 -37.5t44.5 -33.5q0 -20 16 -54q20 -39 22 -53q-14 -10 -32 -10t-33 10q-27 27 -33 135q-43 18 -43 68zM944 995q-1 4 -1 7q0 29 44 45q3 1 5 1q18 0 40 -24 q4 -20 -37 -51q-8 -4 -16 -4q-29 0 -35 26z" />
<glyph unicode="G" horiz-adv-x="1499" d="M37 711q0 20 9 67q7 38 7 62v10q27 10 64 102q10 29 20 99q10 63 27 96q150 154 350 285q14 16 66.5 19t63.5 7t50 15q31 8 51 8q18 0 37 -8q29 18 62 18q27 0 80 -15.5t80 -15.5l40 -28q4 1 9 1q35 0 87 -39q60 -44 83 -44q20 0 45 12q31 -4 35 -4q20 -6 22 -21 q8 -23 8 -43q0 -37 -35 -80q-47 -59 -55 -75q-14 -31 -49 -31q-10 4 -102 39q-49 18 -60 53q-47 43 -262 88q-14 -6 -33 -6q-16 0 -45.5 6t-46.5 6q-31 0 -53 -22l-103 -41q-57 -31 -73 -76q2 -14 8 -37q-27 -25 -29 -88q-4 -86 -8 -104q2 -10 2 -21q0 -48 -27 -121 q0 -119 3 -145q6 -86 38 -135q27 -184 152 -230q34 -36 93 -36h3q53 0 135 28q8 23 58.5 45.5t59.5 49t9 61.5q0 18 -6 72q-3 31 -3 53q0 11 1 20q4 43 4 60q0 37 -9 109.5t-9 109.5q0 35 6 67q12 18 57 20.5t50 4.5q47 8 106 8q43 0 130 -6t130 -6q25 -41 25 -57 q0 -8 -4 -19q-27 -27 -27 -65q0 -18 11 -63q8 -34 8 -55q0 -7 -1 -13q-11 -64 -11 -160q0 -28 1 -58q3 -120 3 -176q0 -27 -1 -39q-4 -12 -18 -94q-10 -63 -31 -84q-4 -51 -65 -55q-90 -6 -103 -10q-25 6 -53 6q-33 0 -95.5 -11.5t-93.5 -11.5q-43 0 -75 17q-12 -1 -24 -1 q-31 0 -66 7l-88 18q-12 -1 -25 -1q-69 0 -154 36q-66 25 -131 49q-78 33 -114.5 81t-65.5 58q-133 180 -133 312q0 51 18 100q-20 29 -20 66zM94 156l4 24q33 -41 70 -63v-13q-39 0 -74 52zM498 647q0 35 16 64q4 4 8 4q2 0 6 -4t7 -4q10 -87 65 -177q-10 -25 -35 -24 q-10 0 -18 8q-49 66 -49 133zM670 901q4 10 9 20.5t17 8.5q3 -15 9 -33q-8 -8 -17 -8q-10 0 -18 12zM1317 -72q10 43 49 70l4 -12q-4 -29 -8 -39q-10 -18 -29 -27q-8 0 -16 8zM1368 1116q0 27 31 39q10 6 16 6q13 0 19 -14q0 -43 -35 -49h-29q-2 10 -2 18z" />
<glyph unicode="H" horiz-adv-x="1679" d="M41 1352q8 23 20.5 47t38.5 20q45 -12 97 -12q51 0 149 16.5t150 16.5q35 0 65 -4q57 0 72 -33q-23 -29 -23 -64q0 -20 12 -67q11 -41 11 -65v-7q-1 -8 -1 -17q0 -31 11 -81q14 -64 14 -92q0 -12 -5 -34t-5 -32q0 -20 19 -33q8 -2 32.5 16.5t34.5 18.5q6 0 12 -2 q4 4 7 47q0 37 18 37q6 0 14 -4q10 -16 11 -37q0 -18 -12.5 -54t-12.5 -54q-6 -29 -35 -29q-10 0 -27.5 3t-27.5 3q-33 0 -27 -45q0 -115 9 -135q20 -16 53 -17q18 0 39 5q4 4 34 18q25 10 33 33q12 72 13 162v102q0 70 4 113q0 96 -50 264q0 39 9 39h11q25 -1 64 -7 q48 -8 70 -8q33 0 59 15q14 -8 33 -9q18 0 52 10.5t53 10.5q14 0 48 -12.5t50 -12.5q20 0 84 11q29 5 52 5q17 0 32 -3q23 -16 22 -39q0 -10 -6 -31.5t-6 -34.5q0 -16 10 -30q14 -37 15 -82q0 -29 -9.5 -88.5t-9.5 -88.5q0 -20 4 -38q-9 -17 -9 -45q0 -9 1 -19q8 -88 8 -94 q0 -18 -6 -53t-6 -54q0 -16 4 -30q11 -145 11 -269q0 -146 -15 -264q-2 -12 14.5 -43t16.5 -39q0 -20 -23 -30q0 -27 -24 -35q-12 6 -23 6q-12 0 -39.5 -12.5t-44.5 -10.5q-4 14 -28 17q-31 2 -33 4q-29 -25 -80 -25q-14 0 -40 2t-40 2q-39 0 -63 -12q-12 -4 -25 -4 q-20 0 -47 19.5t-37 21.5q-4 14 -20 139q-12 86 -64 125q-12 -2 -25 -2q-16 0 -49.5 10.5t-50.5 10.5q-27 0 -47 -19q2 -23 -6 -63q-10 -47 -10 -66q0 -43 28 -59q18 -18 9 -33q-25 -31 -113 -39q-96 -10 -119 -29q-20 12 -49 13q-12 0 -39 -3.5t-39 -3.5q-27 0 -45 11 q-23 -8 -49 -8q-74 0 -148 55q0 45 10.5 132t10.5 132q0 74 -21 129q2 20 2 45q0 29 -5 86t-5 86q0 59 17 103q-4 201 -29 604zM268 1495q10 20 17 21q22 -15 16 -33q0 -18 -8 -15q-25 0 -25 27zM741 0q-1 6 -1 12q0 22 18 38q3 0 26 -19q2 -8 -8 -21.5t-14 -21.5 q-2 -2 -5 -2q-8 0 -16 14zM1546 1004q0 31 39 51q2 -14 2 -31q0 -33 -10 -80q-18 6 -31 60zM1550 279q-2 16 10.5 44.5t12.5 43.5l6 14q2 4 7 4q3 0 7 -2q0 -16 7.5 -46t7.5 -46q0 -25 -15 -43q-2 -1 -5 -1q-15 0 -38 32z" />
<glyph unicode="I" horiz-adv-x="944" d="M-96 1079q0 20 10 21q4 0 8 -2q0 -18 -18 -19zM-53 500q0 23 39 47q6 2 12 2q29 0 29 -29q0 -16 -13 -26q-18 -18 -39 -19q-12 0 -24 8q-4 8 -4 17zM29 14q57 52 57 154q0 17 -2 35q-7 76 -7 125q0 56 9 78q10 61 10 133q0 74 -14 219t-14 219q0 102 18 188q0 23 -5 69 t-5 69q0 94 69 118q25 4 48 4q66 0 126 -28q7 -1 16 -1q30 0 77 11q25 0 75 -9t74 -9q55 0 86 28q39 10 66 10q33 0 51 -14q-4 -37 -31 -164q-18 -91 -18 -157v-13q-14 -45 -15 -90q0 -27 7 -55q10 -20 32 -21q8 0 26.5 4.5t27.5 4.5q23 0 28 -23q9 -70 21 -207 q-8 2 -8 25.5t-7.5 31t-35.5 66.5q-20 43 -56 43q-8 0 -20 -2q-16 -39 -23 -119q-8 -94 -16 -123l18 -419q0 -12 1 -25q0 -65 -9 -160q-25 -27 -47 -26q-12 0 -25 6q-20 6 -45 6q-23 0 -66.5 -6t-66.5 -6q-27 0 -49 6q-115 0 -276 -33q-2 0 -12.5 -12.5t-20.5 -7.5 q-4 6 -31 28q-22 15 -22 30q0 9 4 19zM397 -166q0 6 4 16q6 2 21 19q12 10 22 10q2 -10 2 -20q0 -41 -34 -47q-14 6 -15 22zM440 1542q0 27 19 39q6 2 12 2q10 0 37 -20q-8 -35 -29 -39q-35 0 -39 18zM817 524q0 20 25 37q5 2 9 2q6 0 9 -4q2 -3 2 -7.5t-2 -10.5 q-2 -16 -24 -37q-2 4 -15 4q-4 8 -4 16z" />
<glyph unicode="J" horiz-adv-x="1419" d="M2 424q0 6 15.5 34.5t11.5 45.5q34 24 34 71q0 15 -2 37q-2 23 -2 35q0 49 35 76v20q66 78 197 78q137 0 186 -88q14 -27 66 -121q2 -10 26 -65q18 -41 19 -68q0 -33 -27 -59q-94 -47 -149 -47q-98 0 -107 73q-4 33 -10 68q14 10 33 10q16 0 50 -15t46 -15q18 0 18 34 q0 10 -2 23q-39 45 -118 45q-31 0 -64 -8q-33 -49 -33 -197q49 -104 51 -106q35 -59 91 -70q92 -55 127 -55q25 0 49 12q2 -2 20 -14q12 -10 23 -11q8 0 18 7q74 27 84 149q-6 29 -6 55q0 29 6 58v18q0 54 -9 145.5t-9 145.5v18q-12 33 -17 117q-4 61 -6 125 q-6 72 -23.5 183.5t-17.5 174.5q0 51 12 97q33 0 48 -15q23 4 49 5q29 0 84 -8.5t84 -8.5q20 0 39 2q33 -12 84 -12q29 0 84 6t84 6q55 0 90 -14q-33 -88 -47 -387q-1 -15 -1 -32q0 -75 15 -185q20 -160 22 -217q14 -29 62 -66q6 4 18 14q13 -55 13 -106q0 -127 -68 -170 q-12 10 -29 10q-37 0 -43 -35q-51 -168 -172 -266q-23 0 -60.5 -23.5t-53.5 -23.5q-8 0 -17 2q-14 16 -71.5 21.5t-73.5 23.5q-32 -1 -62 -1q-194 0 -321 44q-18 14 -88 33q-61 16 -80 47q-68 31 -86 45q-41 33 -41 86q-47 20 -55 96q-8 96 -23 113zM172 -104q0 14 25 57 q22 -1 53 -19q-6 -29 -10 -38q-8 -20 -23 -23q-15 -7 -24.5 -7t-14.5 7q-6 8 -6 23zM422 303l14 23q27 -13 27 -19q0 -8 -10 -20q-8 -4 -9 -6q-14 0 -22 22zM553 1055q0 27 18 26q6 0 11 -2q12 -2 14 -43q0 -20 8 -26q2 -18 -5 -51t-7 -46q0 -12 2 -20q-23 -4 -31 14 q-6 12 -2 37q4 27 4 49q0 39 -12 62zM602 238q0 8 10 8q4 0 6 -4q0 -14 -10 -19q0 2 -4 4q-2 0 0 6q-2 2 -2 5zM983 1518q8 27 33 43q29 0 37 -33q0 -20 -23 -55q-27 -10 -39 -7q-13 6 -13 25q0 11 5 27zM1255 360q0 -25 23 -38q12 15 12 40q0 12 -6 38t-6 38h-18 q2 -10 2 -20t-3.5 -28.5t-3.5 -29.5z" />
<glyph unicode="K" horiz-adv-x="1755" d="M-68 1460l9 37q14 -4 14 -51q-14 -4 -23 14zM-45 924l10 4q10 0 12 -10q4 -10 -4 -23l-8 -4q-10 4 -10 33zM49 25q0 20 4 90q3 38 3 65q0 14 -1 25q-4 51 -4 69q0 45 6 76q-4 29 -4 60q0 41 9.5 119.5t9.5 119.5q0 74 -23 129q12 158 12 318t-12 317q-1 4 -1 7 q0 26 38 44q76 -24 151 -24q22 0 44 2q109 -47 237 -47q70 0 131 14q43 -20 43 -43q-20 -142 -20 -308q0 -55 2 -112q16 -35 26 -35q4 0 11 4q158 90 176 199q55 72 133 207q86 147 125 205q29 31 45 30q8 0 14 -4q47 -39 146 -110q1 -8 1 -16q0 -74 -118 -162l-25 -15 q-53 -55 -190 -202q-100 -109 -164 -230q4 -27 80 -57q25 -2 65.5 -25.5t65.5 -25.5q80 -33 80 -142q0 -31 -6 -93t-6 -93q0 -45 26 -191q14 -74 64 -96q12 -8 28 -8q20 0 47 12q8 12 41 23q70 92 70 198q0 59 -27 105q-20 20 -39 20q-20 0 -20 -28q0 -20 10 -57t10 -58 q0 -16 -4 -31q-12 -8 -28 -8t-45 8q-35 12 -43 15q-37 18 -56 75q-1 12 -1 23q0 93 104 139q92 41 145 41q27 0 51 -12q68 -23 101 -100q4 -10 53 -138q4 -18 4 -34q0 -33 -25 -78q-27 -53 -30 -74q-83 -110 -231 -110q-17 0 -35 1q-27 -6 -58 -6q-41 0 -96 13 q-70 16 -94 22q-123 35 -176 164q0 180 32 330q-20 98 -69 108q-106 0 -142 -69q-22 -116 -22 -255v-12q0 -162 29 -327q-31 -25 -70 -25q-27 0 -70 14.5t-61 16.5q-16 -4 -33 -4q-25 0 -76 16t-73 16q-35 0 -66 -24q-14 12 -39 12q-23 0 -69 -15.5t-66 -15.5q-35 0 -35 48z M319 -150q1 29 19 29q0 -29 -19 -29zM434 1604q0 6 2 10l13 10q10 -8 10 -22q0 -12 -10 -21q-14 0 -15 23zM758 219q-2 6 -2 12q0 9 4 21q6 18 20 14q-2 -14 4.5 -38.5t6.5 -34.5q0 -14 -7 -25q-14 4 -26 51zM948 1546q0 14 17 15q4 0 6 -2v-43q-2 -4 -10.5 3t-10.5 14 t-2 13zM1274 1190q-1 6 -1 12q0 18 9 38q10 22 27 21q4 0 8 -1q0 -29 -43 -70zM1638 113q-1 8 -1 18q0 44 24 107q2 0 8 -5q6 -2 10 0v-11q0 -44 -26 -120q-4 -2 -6 -2q-8 0 -9 13zM1661 631q6 37 51 45q6 -1 33 -19q-26 -26 -80 -26h-4z" />
<glyph unicode="L" horiz-adv-x="1523" d="M-57 1016q2 12 20 6q16 -6 17 -16v-11q-31 -6 -37 21zM31 1333q29 47 30 53q35 43 109 44q82 0 199 -60q14 -4 36.5 7.5t28.5 11.5h8q35 -1 105 31q78 36 104 36q51 0 82 -67v-46q-6 -10 -33 -61v-20q0 -54 -8 -138q-10 -113 -10 -159q0 -84 18 -148v-178 q0 -106 -14 -172q12 -20 35 -143q6 -12 55 -15q37 -2 51 -24q63 18 127 18q98 0 164 -43q18 -2 37 -2q41 0 119 22.5t119 22.5q23 0 43 -4q6 -10 6 -27q0 -14 -7.5 -52t-2.5 -58q-14 -14 -15 -29q0 -20 23 -47q31 -33 35 -41q-12 -29 -50 -37q-55 -14 -63 -18 q-53 16 -121 16q-37 0 -109.5 -7t-109.5 -7q-66 0 -119 16q-40 -8 -108 -8q-49 0 -113 4q-48 3 -89 3q-81 0 -130 -13q-53 14 -123 14q-39 0 -114.5 -7t-114.5 -7q-25 0 -56 47q-10 27 -10 59q0 31 11.5 87.5t13.5 78.5q-14 100 -15 223q0 41 6 220q3 73 3 149q0 38 -1 78 q0 33 2.5 96.5t2.5 91.5q0 137 -37 209zM422 1526q-2 2 -2 5q0 4 4 9l137 23l37 -15q-25 -8 -164 -28q-8 0 -12 6zM961 418q0 8 45 31q14 -10 32 -33q-4 -18 -32 -47q-14 -2 -29.5 16t-15.5 33zM1145 915q0 37 33 54q43 0 43 -33q0 -17 -29 -53q-47 12 -47 32zM1559 -297 q6 -3 26.5 -3t56.5 3h9q43 0 43 -37q-98 0 -135 19v18z" />
<glyph unicode="M" horiz-adv-x="1787" d="M-41 885q8 10 14 10q23 0 23 -47q0 -20 -4 -25q-34 28 -34 52q0 5 1 10zM12 12q10 82 11 140q0 -8 -3 49v18q0 80 15 219q20 184 22 238q25 86 31 250q6 174 23 250q4 18 4 45q0 18 -3 57t-3 57q0 92 79 111q29 -4 50 -41q27 -47 36 -57q33 -33 183 -226 q109 -139 194 -204q12 -10 97 -87q57 -51 100 -69q96 35 176 108q31 29 152 142q29 45 131 166q78 92 110 174q37 31 99 133q57 96 98 125q10 4 18 4q23 0 23 -33q-12 -29 -12 -89v-18v-16q0 -61 -13 -90q-12 -137 -45 -414q-14 -51 -14 -104q0 -31 5 -91.5t5 -90.5 q0 -63 -16 -111q-4 -6 -4 -45q20 -25 36 -123q-16 -96 -16 -217q0 -63 4 -135q-18 -25 -41 -25q-10 0 -20 4q-16 0 -47 6.5t-47 6.5q-27 0 -80.5 -16.5t-79.5 -16.5q-35 -12 -78 -12q-27 0 -78 6t-78 6q-12 31 -49 74q6 18 6 36q-1 35 -37 114q-31 68 -31 111q0 7 1 13 q-8 4 -15 4q-25 0 -49 -35q-35 -49 -39 -51q-82 -106 -106 -176q-6 -2 -29.5 -23.5t-36.5 -21.5q-4 0 -45 30.5t-47 34.5q-53 27 -67 58q-2 51 -54 86l-98 49q-28 -43 -28 -128q0 -15 1 -32q3 -56 3 -95q0 -52 -5 -73q-16 -4 -44.5 8.5t-37.5 12.5q-16 0 -32 -17 q-12 6 -29 7q-18 0 -52 -9.5t-53 -9.5q-39 0 -51 49zM727 1399q0 12 10.5 25.5t20.5 13.5q12 0 22 -21q13 -26 15 -28q0 -20 -54 -33q-14 23 -14 43zM819 -49q6 29 8 35q8 20 21 26q21 0 29 -45q0 -28 -27 -28h-2q-10 0 -29 12zM1075 1511q0 16 19 17q10 0 14 -6 q4 -8 -2 -15q-17 -5 -24 -5q-4 0 -5 1q-2 4 -2 8zM1149 1599q0 8 2 19q4 2 16 24q12 16 25 17q9 -1 25 -17q0 -35 -14.5 -44t-39.5 -21q-14 2 -14 22zM1257 1610q0 14 34 25.5t40 23.5q6 2 8 2q9 0 9 -10q0 -18 -17 -31q-25 -16 -28 -23h-4q-16 0 -42 13z" />
<glyph unicode="N" horiz-adv-x="1492" d="M-78 346q-1 4 -1 7q0 9 7 14q3 -15 9 -35q-10 0 -15 14zM25 76l12 92q8 47 24 84q-3 9 -3 35q0 13 1 30v9q0 34 -14 53q4 70 31 192q0 41 -10.5 123t-10.5 123q0 61 21 107q-20 47 -21 108q0 35 8.5 101.5t8.5 101.5q0 43 -11 78q8 23 36 57.5t36 50.5q5 1 11 1 q24 0 57 -19q29 -23 59 -43q6 -6 127 -88q78 -53 111 -111q23 -16 90 -51q59 -29 90 -57q125 -78 272 -189l33 -49q20 -31 47 -31h3q19 0 36 52q0 223 12 452v6q0 27 -16 75q-18 54 -18 79q0 47 51 65q18 -6 37 -6q25 0 68.5 17.5t68.5 17.5q12 0 22 -2l21 -31 q11 -76 11 -164q0 -25 -1 -51l-6 -219v-239q10 -94 17 -279.5t18 -277.5q-2 -16 -2 -37q0 -33 4 -80q6 -78 6 -113q0 -82 -21 -127l-26 -59q-23 6 -60 61q-24 37 -57 37q-8 0 -16 -2q-68 53 -178 123q-178 111 -183 113q-47 2 -132 55t-128 57q-31 25 -84 25h-88 q-25 -12 -31 -60q-4 -37 -6 -73q23 -35 23 -88q0 -125 -66 -125q-12 0 -37.5 7t-40.5 7q-20 0 -34 -12q-1 1 -19.5 1t-54.5 -1q-47 0 -66 22zM240 -135q0 23 20 26q20 0 21 -18q0 -7 -5 -17q-4 -7 -10 -7q-3 0 -6 1q-20 4 -20 7v8zM360 1535q0 17 41 34q1 -4 9 -4 q0 -20 -17 -47q-33 -10 -33 17zM561 1661q0 25 23 25q35 0 41 -29q8 -16 -23 -17q-18 0 -41 21zM610 96l6 19q10 4 29 -33v-19q-6 2 -29 13q-8 8 -6 20zM938 1020q24 42 42 42q2 0 5 -1q1 -2 1 -5q0 -18 -23 -61q-4 -4 -9 -4q-16 0 -16 29zM1417 1507q0 10 33 33q8 4 14 4 q15 0 17 -18v-7q0 -14 -6 -26q-6 -6 -13 -6q-6 0 -19 6t-24 4q-2 6 -2 10z" />
<glyph unicode="O" horiz-adv-x="1601" d="M-82 725q0 55 23 66q8 4 14 -6.5t4 -20.5q2 -8 -17.5 -19.5t-23.5 -19.5zM-37 1038q15 152 203 340q0 -20 -16 -30q-16 -39 -84 -134q-61 -80 -72 -135q-6 -29 -31 -41zM39 711q31 174 45 223q37 129 104 196q59 113 177 179q35 20 227 127q25 2 90 14q55 10 90 10 q49 0 152 -24q55 -12 157 -58q45 -82 222 -141q31 -27 90 -80q24 -128 24 -272q0 -59 -4 -121q-4 -74 -6 -148q-8 -94 -37 -139q1 -11 1 -22q0 -67 -32 -111q-55 -14 -90 -106q-39 -100 -76.5 -123t-111.5 -66q-63 -37 -121 -45q-27 -12 -135 -45q-84 -27 -129 -57 q-20 -4 -41 -4q-70 0 -148 69q-109 96 -135 113q-10 12 -110 88q-117 143 -131 166q-70 104 -68 192q8 51 8 92q0 53 -12 93zM238 604q0 -47 8 -92q6 -6 65 -115q39 -72 76 -106q25 -31 80 -58q70 -35 88 -49q55 -45 133 -45q59 0 262 72q27 45 91.5 126t88.5 126 q53 55 54 168q0 18 -4 110q31 102 31 223q0 26 -1 52q-6 33 -39 55q-45 31 -49 39l-98 53q-33 8 -125 60q-80 45 -133 45q-31 0 -64 -13q-139 -53 -151 -59q-86 -37 -141 -78q-10 -41 -82 -137q-63 -88 -68 -150q0 -8 -14 -116q-8 -66 -8 -111zM539 322q29 8 51 8 q30 -1 55 -13q-96 0 -106 5zM1329 1317l10 14v-14h-10zM1348 61q2 33 8 80t26 66q9 -24 9 -53q0 -63 -35 -93h-8zM1507 885h4v-11q-5 5 -5 8q0 2 1 3z" />
<glyph unicode="P" horiz-adv-x="1552" d="M-53 883q0 25 18 43q15 -3 33 -19q8 -18 -21 -33q-31 0 -30 9zM39 0q0 16 14.5 53t9.5 60q23 106 25 233q0 78 2 234q6 27 6 55q0 37 -12 107.5t-12 105.5q0 20 7 61t7 62q0 20 -8 86q-4 32 -4 56q0 16 2 30q-20 70 -21 127q0 51 17 92q0 6 10 8q10 4 12 -4q33 6 92 6 q22 0 47.5 -1t48.5 -1q59 0 93 6q18 -2 37 -2q25 0 70.5 8.5t70.5 8.5q23 0 43 -7q92 31 111 31q16 0 32 -6q35 10 78 10h-3q0 -2 175 -18q12 1 23 1q109 0 155 -71q82 -14 129 -137q45 -47 86 -315q4 -27 4 -64q0 -131 -81 -192q-39 -82 -54 -103q-37 -57 -90 -65l-135 -93 q-82 -55 -156 -55q-43 0 -88 19q-43 0 -45 -15q-18 -121 -18 -161q0 -55 14 -99q-4 -6 -20 -65q-10 -37 -43 -37q-326 43 -459 43q-18 10 -37 10q-20 0 -62 -18q-38 -16 -60 -15h-5q-8 14 -8 31zM367 1417q8 35 8 27q6 11 17 11q3 0 7 -1q15 -2 19 -14q-6 -29 -39 -43 q-14 2 -12 20zM686 698q0 -102 31 -110q9 1 19 1q57 0 171 -36q74 33 155 72t99 123q0 39 16.5 114.5t16.5 114.5q0 70 -37 117q-88 53 -289 61q-29 8 -49 8q-72 0 -82 -108q-12 -139 -32 -164q-18 -156 -19 -193zM795 856q0 53 20 70q33 -23 31 -31q0 -53 -17 -64 q-6 -2 -10 -2q-18 0 -24 27zM829 752q10 18 17 18q16 6 28 6q20 0 29 -18v-10q-4 0 -18 6q-6 0 -20.5 -6.5t-20.5 -6.5q-8 0 -15 11zM850 66q0 29 14 51q29 -1 29 -21q0 -8 -5 -26.5t-5 -26.5q0 -12 6 -20q-12 -6 -22 -6q-4 0 -7 1q-10 25 -10 48zM1253 365q33 16 70 16 q51 0 51 -39v-55q-6 -2 -20.5 3t-18.5 5q-10 0 -14 -14q-6 -4 -12 -5q-12 0 -27 27q-20 33 -24.5 36t-4.5 26z" />
<glyph unicode="Q" horiz-adv-x="1779" d="M-102 698q-1 14 -1 24t1 15q4 20 16 31q8 4 16 4q16 0 33 -41q6 -14 6 -22q0 -12 -14 -46t-10 -55q-3 -1 -6 -1q-20 0 -39 50q0 10 -2 41zM49 551q0 25 8 84q5 40 5 67q0 9 -1 17q8 14 21 108q10 70 47 93q10 49 51 118q47 84 60 117q119 82 311 285q20 -6 39 -6 q33 0 92 25.5t92 25.5q27 0 53 -8l111 -7q61 -4 100 -40q37 -25 162 -37q106 -12 141 -74q49 -16 95 -84q8 -18 61 -117q35 -90 43 -217q2 -45 8 -225q-27 -39 -65 -203q-33 -135 -109 -182q-6 -47 -55 -92q-61 -55 -74 -78q-6 -6 -55 -72q-35 -47 -78 -47q-53 -18 -137 -74 q47 -53 162 -78q143 -31 182 -51l111 -8q81 73 81 124q0 13 -4 28q-40 47 -78 47q-7 0 -14 -2q-10 -6 -37 -56q-18 -35 -51 -26q-35 53 -35 78q0 23 54 90q20 27 51 28q18 16 47 13q59 -8 49 -9q137 -61 162 -247q14 -18 14 -41q0 -25 -22 -62q-20 -29 -39 -57 q-55 -90 -187 -90q-6 0 -227 31q-104 14 -139 26q-72 25 -99 74q-43 6 -131 92t-139 86q-14 0 -29 -4q-5 1 -9 1q-33 0 -68 -37q-39 -42 -64 -46q-27 -29 -55 -88q25 -63 55 -63q45 0 64 63q23 -6 45 -86q-29 -113 -146 -133q-14 -25 -41 -25q-14 0 -28 11q-72 55 -93 75 q-42 42 -42 88q0 7 1 15q31 217 185 280q4 -6 10 -6q10 0 27 17q-125 49 -258 159q-23 12 -46.5 79t-50 84t-45 92t-37.5 93q-12 29 -12 64zM92 -164q12 88 51 88q2 -8 2 -16q0 -25 -16 -58q-10 -20 -27 -20q-6 0 -10 6zM299 664q10 -113 14 -138q14 -80 52 -125 q18 -16 47 -88q23 -55 71 -63q18 -43 84 -57q96 -20 109 -27q25 -16 69 -16q16 0 47 3t48 3q35 0 51 -9q5 -1 10 -1q19 0 43 18q31 24 39 24q10 0 23 -8q88 57 98 84q63 45 90 72q45 45 70 121q67 211 67 305q0 70 -26 127q-23 84 -91 151q-23 23 -124 123l-29 4 q-4 0 -34 -13t-44 -13q-36 28 -94 28h-12l-123 -2q-84 -8 -117 -18q-68 -16 -102 -55q-39 -4 -80 -45q-8 -8 -64 -74q-52 -81 -52 -116q0 -4 1 -7q-29 -23 -29 -64q0 -12 3 -36.5t3 -36.5q0 -33 -18 -51zM635 713q23 86 129 139q9 1 18 1q41 0 80 -30q14 -10 76 -63 q31 -43 31 -117q0 -49 -13 -100q-16 -4 -38.5 5t-30.5 9q-12 0 -23 -8q-41 -53 -129 -70q-69 69 -69 89q0 11 6 26q-18 31 -37 119zM848 1655q0 10 2 22q8 23 33 23q24 -1 24 -21q0 -8 -7 -20t-15 -24.5t-21 -12.5q-16 8 -16 33zM1128 788q0 55 25 56q8 0 18 -2 q4 0 8.5 -10.5t10.5 -12.5q-18 -57 -45 -78q-16 10 -17 47zM1667 549q8 4 19 4q43 0 43 -35v-6q-6 -14 -43 -14q-20 20 -20 41q0 5 1 10z" />
<glyph unicode="R" horiz-adv-x="1638" d="M-121 238q0 31 19 43q14 2 20 -9q10 -24 10 -30t-9 -11.5t-11 -11.5q-29 10 -29 19zM-49 1128v9q0 28 10 63q23 -10 23 -100q-31 -6 -33 28zM35 1235q0 68 20 121l62 39q49 0 196 -2h20q107 0 167 20q25 8 51 8q27 0 96 -16q49 -11 83 -11q10 0 18 1l118 -4 q272 -37 416 -158q27 -43 39 -66q23 -41 29 -75q20 -33 30 -101q12 -88 21 -108q-43 -229 -195 -322q-55 -49 -65 -61q-35 -41 -39 -82q-4 -4 -39 -10q-25 -4 -27 -27q-4 -8 -4 -16q0 -42 27 -42q4 0 10 1q16 16 78.5 30.5t79.5 34.5q18 4 37 4q41 0 106 -26q76 -29 107 -33 q30 -42 30 -103q0 -41 -16 -69q-23 -115 -188 -189q-76 -8 -144 -8q-86 0 -162 12q-23 14 -55 52q4 12 4 20q0 20 -20 39l-41 37q-47 12 -76 70q0 39 -18 53q-96 -12 -105 -12q-66 -14 -86 -50q4 -12 4 -24q0 -10 -3 -28.5t-3 -29.5q0 -20 12 -36q6 -39 -28 -48 q-4 0 -86 -16q-53 -10 -86 -10q-16 0 -33 2q-35 -16 -84 -16q-55 0 -90 2q-16 -14 -31 -15q-10 0 -32.5 11.5t-35.5 11.5q-8 0 -16 -2q-14 10 -14 24q0 8 14 35t10 43q-1 14 -1 33q0 36 5 88q8 92 9 121q0 78 -27 129q1 13 1 29q1 64 -13 168q-16 130 -17 196q0 70 15 129 q-35 227 -35 252zM203 1513v6q0 23 26 37q27 8 54 19l16 -8q16 -9 16 -21q-8 -29 -71 -51q-33 -8 -41 18zM283 -66q25 0 72.5 15.5t72.5 15.5q29 0 53 -16v-10q-13 1 -25 1q-62 0 -102 -34q-35 6 -71 28zM639 903q0 -63 12 -135v-10q1 -38 13 -102q14 -74 14 -109 q0 -29 -6 -58q16 -13 55 -13q10 0 21 1q26 2 45 2q28 0 38 -4q18 14 91 29q61 12 75 37q37 18 72 95t61 95q39 57 39 139q0 115 -67 240q-51 33 -164 49q-135 20 -176 31q-123 -94 -123 -287zM727 -102q-1 5 -1 9q0 23 26 42q20 6 32 -8l25 -29q0 -35 -39 -53q-4 -1 -7 -1 q-25 0 -36 40zM737 1042q0 10 14.5 43t10.5 54q6 16 33 16q26 0 36 -12q20 -27 -18 -47q-23 -8 -33 -15q-16 -12 -18 -28q6 -16 -14 -37q-10 12 -11 26zM817 637q-2 27 25 51l51 33q8 4 12 4q9 0 17 -27q4 -27 -52 -75h-28q-18 0 -25 14zM1073 229q0 -88 76 -118 q20 0 59 -8.5t60 -8.5q27 0 52.5 18.5t25.5 45.5q0 16 -14.5 41.5t-16.5 38.5q-16 14 -39 14q-8 0 -51 -8q-33 -6 -56 0q-14 14 -36 14q-39 0 -60 -29zM1524 338l6 14q55 -30 55 -57q-8 -43 -37 -115q-4 10 -4 21q0 14 7.5 41.5t7.5 42.5q0 35 -35 53z" />
<glyph unicode="S" horiz-adv-x="1288" d="M31 193q10 47 18 94q16 55 49 78q14 0 41 -24t41 -24q8 0 17 2l69 -43q35 -22 62 -22h2q16 0 48 12.5t58 7.5q41 -6 53 0q18 27 72 35q2 0 16.5 -9t22.5 -5q29 4 45 29l-76 116l-84 62q-4 12 -112 184q-16 8 -49 40t-56 42q-37 57 -98 178q-4 18 15.5 49t21.5 41 q66 57 80 129l80 125q47 74 94 113q6 20 51 45q29 -14 87 -18.5t83 -12.5q38 -28 116 -28h5h31q23 2 32 2q119 0 152 -80q-4 -59 -27 -158q-2 -12 -12 -53q-8 -33 -33 -27q-18 4 -65 39q-36 27 -66 27h-4q-26 22 -133 22h-10q-2 -2 -43 -6q-27 -4 -27 -35q0 -16 18.5 -41.5 t20.5 -34.5q35 -33 85 -111.5t85 -111.5q35 -16 93 -65t91 -66q31 -23 90 -69q51 -41 62 -93q-1 -4 -1 -8q0 -22 38 -37q-8 -43 -60 -104q-55 -68 -69 -100q-31 -33 -101 -152q-55 -94 -112 -127q-24 2 -52.5 2t-60.5 -2q-94 -6 -109 -6q-100 0 -167 41q-141 12 -226 47 q-35 20 -67 41q-41 23 -76 24q-4 4 -25.5 16.5t-23.5 29.5zM106 1327l11 33q6 4 10 4q6 0 31 -27q2 -4 2 -8q0 -10 -17 -18q-12 0 -37 16zM117 758v14q8 0 18 -6q4 -8 -10 -8h-8zM250 428q0 6 2 12q14 12 31 13q41 0 53 -35q0 -41 -27 -53q-6 -4 -14 -5q-25 0 -31 29 q0 6 -7 19.5t-7 19.5zM768 1513q0 16 12 43q4 2 8 2q9 0 13 -10q4 -6 4 -10q0 -6 -6 -12l-27 -27q-4 6 -4 14zM1081 201v6h4v-6h-4zM1081 924q-2 9 -2 17q0 27 21 38q16 -2 26 -25q0 -12 -22 -34q-18 0 -23 4z" />
<glyph unicode="T" horiz-adv-x="1372" d="M29 1292v11q0 61 63 98q61 4 103 6h11q52 0 87 -18q10 -1 22 -1q31 0 75 7q62 10 89 10q18 0 35 -4q94 14 221 16q63 0 228 2q43 0 123.5 -8t119.5 -8q80 0 144 29h55q29 0 49 -17q20 -25 29 -98q8 -64 43 -82q-2 -10 -26.5 -32.5t-22.5 -43.5q-6 -18 -25 -18 q-16 2 -33 6q-37 -8 -63 -8q-39 0 -64 16q-14 -4 -32 -4q-16 0 -47 4t-48 4q-55 0 -80 -35q0 -25 -15 -71.5t-15 -71.5q0 -27 12 -51v-14q0 -41 -9 -109q-11 -80 -11 -117q0 -39 8 -76q-18 -90 -19 -163q0 -66 15 -119q-6 -141 -7 -219q0 -47 3 -70q-4 -2 -66 -41 q-39 -25 -70 -25q-27 0 -51 17q-20 -2 -47 -2q-40 0 -94 4q-111 6 -141 6q-41 0 -78 -4q-61 -16 -105 -16q-31 0 -53 8q-10 47 -10 102q0 35 14 189q3 30 3 65q0 91 -19 215v426q-12 12 -39 88q-18 53 -60 53q-12 0 -26 -4q-20 29 -58 29q-16 0 -45.5 -5t-46.5 -5 q-8 18 -11 72.5t-15 76.5zM145 852q2 4 2 8q12 4 46 -18q10 -15 10 -33q0 -12 -9.5 -42t-5.5 -48h-22q-23 33 -8 57q18 29 8 49q-2 8 -11.5 15.5t-9.5 11.5zM164 279q0 6 6 25.5t4 27.5q25 25 27 22q4 -12 -2 -36.5t-6 -32.5q0 -17 8 -27q-2 -4 -27 -4q-10 10 -10 25z M184 180q0 14 9 25l12 14q20 -14 26 -80q-14 -14 -19 -14h-1q-27 33 -27 55zM723 1552v5q0 16 10 24q6 2 28.5 22.5t37.5 20.5q12 0 22 -16q-6 -41 -39 -84q-8 -4 -45 4q-12 4 -14 24zM1165 905q0 18 15.5 33.5t33.5 15.5q13 0 21 -10q2 -14 -35 -45q-12 -6 -20 -6 q-10 0 -15 12zM1169 408q-1 12 -1 23q0 71 32 142q0 -121 -18 -350z" />
<glyph unicode="U" horiz-adv-x="1456" d="M-41 1026q31 -51 31 -82q27 -2 59 -29q6 23 6 64q0 23 -3 68t-3 67q0 43 8 70q4 23 -5 61.5t-9 54.5q0 23 10 41q-2 12 -2 23q0 27 19 33q45 -10 96 -11q39 0 114.5 9.5t114.5 9.5q29 0 56 -4q43 14 118 47q29 -6 68 -14q47 -16 47 -66q0 -14 -18.5 -48t-18.5 -44 q0 -14 8 -29q0 -137 -4 -153l4 -287q6 -29 7 -62q0 -27 -5.5 -77t-5.5 -76q0 -29 4 -53q-6 -35 -6 -70q0 -121 74 -174q82 -27 86 -27q18 0 35 11q16 -4 28 -5q41 0 58 37q33 47 33 119v125q4 20 30 264q18 164 19 264q0 162 -41 289q0 20 26 29q21 1 43 1q98 0 209 -22 q10 -2 30.5 9.5t29.5 11.5q0 -67 12 -98q-47 -127 -59 -326q-2 -29 -9 -340l-4 -199l6 -192v-22q0 -45 -6 -103q-16 -4 -63 -39q-18 2 -35 2q-51 0 -148.5 -45t-148.5 -45q-16 0 -33 2q-14 -8 -88 -31q-53 -16 -78 -41q-35 -14 -67 -14q-47 0 -127 43q-86 49 -125 55 q-25 10 -64 10q-14 0 -43.5 -2t-44.5 -2q-82 0 -110 45q-25 68 -25 76q0 16 8 33v9q1 42 17 116q18 82 18 121q0 76 -55 121q-6 -2 -10 -3q-16 0 -17.5 11.5t-3.5 21.5q41 7 41 59v9l-6 72q4 66 12 188l-12 12q-14 -16 -27 -35q-18 -20 -43 -20q-6 23 -4 53l4 53zM326 -98 q6 18 32.5 27.5t28.5 11.5q60 -15 115 -95q-51 -39 -90 -39q-14 0 -25 5q-33 57 -61 90zM723 952q-1 12 -1 27q0 39 7 102q2 -8 2 -25q0 -35 -8 -104zM776 674q0 16 21 31q23 8 22 -25q0 -21 -20 -27q-23 -6 -23 21zM1116 -94q-2 37 66 98l4 -12q0 -82 -51 -103h-1 q-6 0 -18 17zM1214 1593q0 12 39 70q3 1 5 1q12 0 12 -24q-6 -41 -51 -63q-4 8 -5 16zM1362 1518q0 4 6 14t6 14q8 10 13 10q2 0 4 -2q4 -2 4 -7q0 -3 -2 -7q-4 -14 -2 -18q-8 -4 -17 -15q-12 2 -12 11z" />
<glyph unicode="V" horiz-adv-x="1595" d="M0 987q-4 17 -4 30q0 20 10 27q12 -4 21 -20l10 -29q-6 -12 -19 -16q-14 -6 -18 8zM35 1251q0 16 7 50t7 51q27 16 76 28q63 14 80 21q18 -10 41 -10q16 0 94 26q33 4 88 25q72 29 90 33q33 -6 37 -7q27 -8 27 -47q0 -12 -6.5 -38.5t-6.5 -39.5q0 -16 6 -30 q61 -238 95 -338q59 -182 139 -313q25 -31 51.5 -117t57.5 -119l14 6q12 29 61 115q41 72 47 123q66 109 95 166q47 94 65 182q0 23 20.5 66.5t20.5 66.5q0 10 -4 23q0 57 12 71q47 31 101 35q70 -24 168 -100q4 -16 -27 -51t-33 -46q-6 -31 -46 -82t-46 -83 q-33 -51 -74 -183q-20 -20 -26 -65q-29 -29 -52 -82q-35 -82 -38 -88q-24 -44 -24 -87q0 -9 1 -18q-49 -18 -72 -84q-37 -102 -41 -106q-8 -47 -14 -66q-12 -35 -37 -51l-4 -94q-12 -86 -90 -86q-29 0 -88 22q-50 19 -81 20q-6 0 -11 -1q-18 23 -58 24q5 0 5 -1t-70 -1 q-10 20 -13.5 68.5t-11.5 69.5q-53 98 -53 143q-20 33 -111 221q-63 133 -120 211q-12 33 -62 121q-41 74 -47 127q-33 90 -55 139q-35 76 -66 129q-18 20 -18 51zM96 860q0 4 4 10q16 -4 17 -18q0 -6 -2 -12h-4q-14 14 -15 20zM340 322q12 -2 32.5 -30t33.5 -30 q14 -57 14 -53q0 -12 -10 -21q-25 18 -25 43q0 8 2 17q-20 23 -47 74zM770 1153q-1 2 -1 6q0 11 9 37q12 2 50 26q33 21 51 22q3 0 6 -1l8 -16q-4 -25 -23 -62q-12 6 -24 6t-38 -9t-38 -9zM854 680l4 12q25 -6 43 -43q25 -51 31 -57q0 -12 -14 -19q-12 10 -27 60 q-10 39 -37 47zM944 1065q4 18 19 49q4 1 7 1q15 0 23 -19q6 -23 -35 -43q-4 0 -14 12zM1202 223q0 41 35 47q-10 -23 -35 -47z" />
<glyph unicode="W" horiz-adv-x="2066" d="M-39 815q-2 16 -2 32q0 56 23 107q8 -22 8 -47q0 -47 -25 -96zM-35 406q0 18 12 40q18 0 19 -20q0 -8 -2 -20q-14 -27 -25 -25q-4 12 -4 25zM23 1264q-4 27 47 73q12 -2 26 -2q25 0 75 12.5t75 12.5q35 0 61 -19q25 6 84 43q51 33 86 33q12 0 27 -4q18 6 35 6 q31 0 53 -22q12 -20 12 -56q0 -18 -6 -52t-6 -52q0 -39 16 -61q51 -152 51 -189q23 -23 72 -115q41 -76 82 -102q39 10 64 55l32 82q8 37 45 115q33 72 39 115q25 18 49.5 71.5t42.5 71.5q20 -10 47 -52t42 -52q8 -31 49 -92.5t47 -100.5q33 -57 63 -115q38 -50 94 -50 q9 0 19 1q31 23 74 152q98 150 114 276q16 12 17 47v41q0 49 41 54q23 12 53 12q31 0 55 -12q18 -35 117 -76q82 -35 82 -92q0 -12 -2 -25q-57 -33 -119 -139q-70 -121 -106 -154q-16 -82 -111.5 -219t-114.5 -211q-25 -29 -44 -117t-44 -118q-45 -129 -51 -218 q-10 -31 -57 -36h-76q-29 6 -29 39q0 8 2 24t2 25q0 29 -22 41q0 59 -60 110q-76 66 -90 99q-23 115 -108 147h-8q-96 0 -152 -88q-14 -23 -92 -156q-29 -37 -67 -123t-66 -122q-74 -18 -105 -19q-49 0 -71 27q-4 29 -15 180q-8 115 -31 178q-39 70 -77 219q-47 184 -66 234 q-82 217 -196 465zM94 565q0 25 12 21q9 -12 9 -47q-13 -4 -19 6q-4 6 -4 12q0 4 2 8zM831 225q0 14 17 31q8 6 14 6q22 0 10 -53q-2 -8 -28 -8q-12 12 -13 24zM836 1147q0 18 41 49q32 0 32 -25q1 -4 1 -8q0 -35 -50 -35l-20 5q-4 8 -4 14zM1419 1108q0 6 4 16q6 4 11 4 q4 0 5 -13t3 -15q-10 -8 -15 -8q-8 6 -8 16zM1544 35q0 59 76 153q8 -14 8 -34l-16 -103q-37 -51 -62 -51q-6 16 -6 35zM1745 477q0 10 6 21l27 26q16 16 26 17q9 -1 17 -11q-16 -68 -62 -77q-14 10 -14 24z" />
<glyph unicode="X" horiz-adv-x="1564" d="M39 164q43 88 70 119q49 57 120 59q88 66 258 254q-4 12 -55 133q-35 82 -70 125q-39 111 -190 289q-35 0 -100 74v59q0 37 24 45q35 16 146 53q12 4 90 43q53 27 94 29q98 49 102 49q29 0 43 -41q-1 -4 -1 -8q0 -28 24 -78q27 -57 27 -80q47 -98 102 -200.5t131 -174.5 q16 2 72 58l90 90q51 51 59 110q18 8 57 49.5t68 51.5q2 18 39 18q12 0 31 -2q35 -10 63 -76q31 -72 49 -84q4 -6 4 -69q-18 -20 -116 -76q-190 -158 -283 -295q-2 -8 -2 -16q0 -16 16.5 -44t18.5 -40q111 -94 156 -182q16 -16 90 -136q51 -82 120 -98q25 -6 25 -35 q2 -35 8 -49q-25 -23 -125 -70q-88 -41 -118 -88q-6 0 -22.5 7.5t-25.5 7.5q-10 -6 -77 -47q-10 12 -62 18q-31 4 -47 35q-25 49 -41 63q-41 39 -39 70q-37 27 -80 101.5t-69 99.5q0 23 -25 53q-184 -70 -287 -199q-72 -141 -213 -141q-6 -2 -11 -2q-24 0 -42 35 q-25 25 -51 84q-18 12 -45 49zM254 565q-1 4 -1 8q1 18 15 30q18 15 39 15q21 1 35 -22q1 -7 1 -13q0 -36 -38 -48q-6 -8 -18 -9q-10 0 -23 4q-8 25 -10 35zM563 -27q37 43 53 43q7 0 13 -2q0 -45 -45 -92q-23 11 -23 36q0 7 2 15zM805 1079v25q8 6 14 6q23 0 23 -27 q0 -8 -4 -16q-31 0 -33 12zM1001 1366q0 4 9.5 11t9.5 9q6 0 16 -20q-2 -10 -16 -10q-6 0 -16 2q-2 4 -3 8zM1262 635q-1 3 -1 5q0 24 48 56q-4 -29 -47 -61zM1452 1016q0 27 14 47h4q10 0 15 -8q10 -16 14 -21q-4 -12 2 -28v-6q0 -11 -6 -21q-10 -10 -22 -10q-5 0 -11 2 q-10 25 -10 45z" />
<glyph unicode="Y" horiz-adv-x="1464" d="M4 1245q10 25 98 60l160 94q77 45 180 45h9q20 -12 32.5 -71.5t34.5 -72.5q5 1 10 1q25 0 43 -35q27 -49 45 -54q37 -8 106 -89t109 -89q162 156 281 355q23 37 27 43q18 25 37 32q76 -8 102 -80q2 -27 36 -69t36 -58q-49 -55 -162 -204q-92 -123 -164 -195 q-12 -12 -14 -69.5t-19 -69.5q10 -203 13 -223q12 -129 40 -220q4 -18 5 -38q0 -12 -7 -64q-6 -41 -2 -61t19 -56q0 -51 -39 -67q-8 -3 -49 -3q-20 0 -49 1q-55 0 -95 -19h-7q-36 0 -96 19q-65 20 -91 20q-29 0 -55 -10h-12q-24 0 -91 4q-16 1 -30 1q-42 0 -70 -9 q-25 10 -29 45v57q0 301 8 455q59 53 60 96q0 18 -8 33q-8 33 -55.5 96.5t-51.5 102.5q-57 74 -63 86q-37 51 -54 92l-76 92q-14 6 -35.5 41t-42 37t-24.5 18zM225 610q0 23 31 23q18 -1 18 -15q8 -23 -24 -30q-25 0 -25 22zM856 1272q39 76 62 76q10 0 22 -9q-4 -8 4 -31.5 t4 -31.5q-8 4 -16 4q-12 0 -31.5 -15.5t-21.5 -15.5q-10 0 -23 23zM1118 719q-2 8 -2 15q0 37 43 61q4 1 8 1q17 0 25 -22l-12 -39q-6 -23 -25 -33q-18 -10 -37 17zM1120 115q0 10 4 29.5t4 29.5q0 8 -2 14q6 12 2 27q-6 20 -6 25q0 20 19 20q6 0 10 -4l12 -12q2 -21 8 -60 h-4q-2 -6 -2 -53q0 -37 -22 -45q-23 6 -23 29zM1130 432l5 12q13 0 13 -7q0 -2 -1 -5q-1 -4 -5 -4h-3q-4 0 -9 4z" />
<glyph unicode="Z" horiz-adv-x="1904" d="M-35 10q0 8 8 13q39 55 125 141q94 94 129 137q47 25 104.5 106.5t90.5 102.5q25 43 90 139q57 86 84 144q100 76 213 303q-18 3 -42 3q-33 0 -79 -5q-100 -8 -125 -9q-162 0 -217 -69q-7 6 -23.5 6t-41.5 -6q-8 -2 -14 -2q-28 0 -34 35q10 25 11 55q0 31 -14.5 89 t-14.5 87q0 76 107 80q27 -4 55 -4q29 0 92 8q50 6 83 6h15q51 -20 113 -20q66 0 154 24q51 8 260 25q156 12 249 41q25 2 93 14q57 10 92 10q29 0 51 -4q23 0 59.5 15.5t53.5 17.5q14 -10 41 -10h22q14 2 23 2q39 0 47 -31q0 -23 -25 -47q-31 -31 -37 -43 q-39 -78 -147 -199l-178 -196q-16 -33 -97 -144q-66 -90 -79 -159q-141 -193 -207 -340q8 -14 22 -15q6 0 26.5 6.5t31.5 4.5q88 -23 159 -23q96 0 176 37q23 -10 48 -10q20 0 75 12q34 7 58 7q10 0 18 -1q39 12 57 12q55 0 56 -39q0 -4 -17.5 -25.5t-15.5 -31.5 q-2 -18 -2 -37q0 -20 4 -59t4 -60q0 -39 -16 -67q29 -47 35 -76q-7 -1 -14 -1q-26 0 -66 10q-52 14 -74 14q-25 0 -45 -9q-63 8 -401 19q-35 16 -78 16q-32 0 -98 -11q-56 -9 -91 -9h-12q-12 4 -107 10q-61 4 -92 37q-20 2 -41 2q-59 0 -178 -37q-113 -35 -175 -35h-7 q-39 10 -84 10q-78 0 -143 -30h-8q-39 0 -83 35q-12 16 -12 28zM39 1208q0 33 27 49q25 10 49 23q24 -4 57 -33q-8 -47 -39 -129q-51 20 -65 31q-27 23 -29 59zM322 -379q33 25 45 25q12 -1 16 -19q-10 -10 -55 -24q0 6 -6 18zM342 807q25 51 70 57q2 -8 2 -16 q0 -29 -35 -64q-31 0 -37 23zM1122 -217q0 10 31 27q19 6 39 -37q-2 -14 -16 -15q-6 0 -20.5 5.5t-20.5 5.5q-12 6 -13 14zM1323 444q0 23 57 62q50 -1 52 -21q-2 -25 -66 -69q-6 -2 -12 -2q-14 0 -31 30zM1380 1620q-1 6 -1 12q0 20 16 35q4 1 8 1q9 0 15 -6q9 -10 5 -24 q0 -35 -14 -34q-12 0 -29 16zM1739 872q16 6 30 13h6q15 0 21 -13q0 -24 -26 -24q-7 0 -17 2q-14 4 -14 22z" />
<glyph unicode="[" />
<glyph unicode="\" />
<glyph unicode="]" />
<glyph unicode="^" />
<glyph unicode="_" />
<glyph unicode="`" />
<glyph unicode="a" horiz-adv-x="1286" d="M174 41v5q0 12 6 32q8 24 8 35q27 80 103 255q72 164 100 257q10 10 20.5 38.5t18.5 36.5q25 51 80 238q8 25 57 145q18 16 35 17q8 0 16 -4q16 -2 44 -13q27 -33 67 -125q37 -82 74 -118q20 -29 51 -97q2 -2 51 -88q29 -51 64 -84q57 -133 174 -249q10 -3 18 -13 q-2 -31 -69 -98q-37 -29 -113 -109q-68 -72 -115 -102q-12 0 -21 16.5t-12 18.5q-20 18 -47.5 44.5t-40.5 53.5q-14 18 -90 27q-22 2 -48.5 2t-55.5 -2q-57 -4 -85 -4h-15q-23 -6 -56 -31q-2 -8 -20.5 -33.5t-18.5 -42.5q0 -16 13 -29q4 -10 -17 -20q-16 8 -45 8 q-10 0 -28.5 -2t-28.5 -2q-55 0 -74 37zM213 -86q18 8 23 8q8 0 6 -14q-11 -11 -21 -11q-3 0 -6 1q-8 2 -8 7q0 3 6 9zM469 381q20 -18 29 -16q10 2 20 3q14 0 40 -8t38 -8q15 0 25 4q2 12 -9 39q-14 35 -16 39q2 16 -19.5 46t-21.5 40q0 14 8 29l-10 16q-20 0 -29 -28 q-10 -39 -18 -45q-25 -14 -37 -111zM518 -14v28q0 20 14 27q8 2 15 -4l12 -10q-2 -18 -20 -43zM600 1147q0 12 18 16q21 -4 23 -18q0 -8 -10 -17q-31 0 -31 19zM735 1141q8 23 17 22q6 -4 12 -4q4 0 12 3t12 3q5 0 9 -2q4 -8 4 -16q0 -14 -13 -21q-23 -2 -53 15zM774 -59v6 q0 14 6 37q13 1 23 -9q4 -25 -6 -43q-23 0 -23 9zM973 719q4 31 24 31q43 0 60 -52q6 -50 6 -73q-4 -2 -8 -2t-13 2q-23 20 -69 94z" />
<glyph unicode="b" horiz-adv-x="1067" d="M-133 1026q-1 2 -1 5q0 13 15 48q4 1 8 1q18 0 23 -19q6 -31 -16 -53q-6 -4 -16.5 3t-12.5 15zM-100 424q0 8 10 14q16 0 24 -6q0 -27 -18 -18q-8 -4 -11 3t-5 7zM-49 864l4 10q25 4 25 -20v-14q-12 0 -29 24zM-35 160q20 51 29 51q6 0 14 -16q0 -39 -18 -52q-4 -2 -8 -2 q-10 0 -17 19zM43 913q8 18 8 41q0 12 -5 45q-4 24 -4 40q0 7 1 12q29 6 51 6q47 0 66 -25q111 0 168 37q16 8 34 8q14 0 46 -9t43 -11q18 0 52 4t52 4q43 0 66 -21q27 0 88 -20q46 -17 76 -17q6 0 12 1q57 -43 116 -86q62 -55 62 -123q0 -27 -10 -58q-29 -176 -183 -215 q-20 -20 -14 -39q6 -12 16 -12t23 8l4 4q86 -33 127 -94v-5q0 -25 16 -74q13 -40 13 -67q0 -9 -2 -16q0 -137 -88 -190q-125 -57 -195 -57q-12 0 -38 5t-38 5q4 0 -45 -4h-13q-48 0 -61 28q-15 -3 -66 -3q-25 0 -59 1q-76 0 -114 -24q-16 8 -47 8q-14 0 -41 -3t-41 -3 q-41 0 -62 14q-4 6 -4 12q0 4 12.5 38t14.5 53q2 27 0 61q-2 41 -2 61l-17 15q-4 45 -4 94q0 63 6.5 189t6.5 190q0 49 -2 94q-8 10 -11 51q-2 35 -14 47zM528 -137l27 26l14 -24zM541 698q0 -61 34 -88l101 8q63 4 92 39q39 55 39 88q0 16 -8 31q-20 53 -84 74 q-18 6 -119 24q-27 -8 -39 -38q-16 -66 -16 -138zM565 201q0 -33 21 -58q10 -34 53 -34h2h23q14 2 22 2q25 0 39 -11q35 4 63 29q48 68 48 111q0 27 -15 47q0 59 -108 106q-8 2 -19 2q-8 0 -27.5 -5t-27.5 -5q-14 0 -27 8q-25 -18 -24 -53v-64q-2 -20 -13 -34 q-10 -20 -10 -41zM997 77q0 5 13 17q2 2 8 2v0q6 0 24 -28q-2 -8 -10 -21h-1q-34 0 -34 30z" />
<glyph unicode="c" horiz-adv-x="1198" d="M4 340q2 2 8 2q30 -29 30 -51q0 -4 -1 -8q-12 0 -22.5 26.5t-14.5 30.5zM49 528q-5 33 -5 68q0 77 24 166q23 82 69 133q14 29 101.5 70t99.5 82q28 40 85 40h3q20 0 45 -4q23 -12 74 -12t71 -8q31 -12 72 -12q-10 0 2 2h35h39q35 0 63 -9q68 -6 125 -55q16 -14 90 -100 q4 -31 27 -84q-4 -16 -38 -57t-34 -68q-25 -14 -63 -62q-12 -2 -29.5 -23.5t-25.5 -23.5q-9 -1 -18 -1q-98 0 -138 61q-6 12 -6 31q0 27 12 67l19 19q18 16 36 12q4 -2 31 -21q18 -12 37 -9q12 8 12 58q-20 29 -88 37q-78 10 -98 25q-35 2 -94 20q-78 -2 -133 -55l-107 -102 q-33 -63 -33 -82q0 -10 8.5 -28.5t8.5 -29.5q0 -8 -5.5 -25.5t-4.5 -25.5q0 -12 6 -20l18 -123q27 -12 88 -72q49 -47 96 -53q12 -14 59.5 -21.5t55.5 -25.5q49 -20 94 -21q43 0 70 21q14 2 43 -12q3 -1 8 -1q20 0 60 22q50 26 61 26q29 0 35 -58q4 -4 14 -51q10 -39 33 -45 q4 -25 -23.5 -33t-97.5 -41q-27 -16 -51 -12q-16 -14 -37 -14q-14 0 -45 14t-47 14t-68 -34q-31 -20 -51 -21q-18 0 -37 14q-6 -4 -6 -14q20 -20 74 -43v-22q-10 -2 -19 -2q-4 0 -73 26q-12 14 -33 41q4 4 26 2q16 0 19 14q-72 50 -127 50h-10q-78 35 -84 36q-45 25 -70 58 q-18 2 -51 27.5t-46.5 32.5t-45 14.5t-37.5 13.5q-63 102 -66 168q16 18 17 41q0 16 -12 53q-9 28 -10 46q0 6 1 11zM231 1090q0 24 16 24h1q18 -4 22 -27q-6 -23 -14 -22q-18 -2 -25 25zM293 76q14 4 25 -21q0 -10 -13 -16q-13 9 -13 25q0 6 1 12zM358 504q6 6 11 6l8 -45 q-20 27 -19 39zM436 659q0 23 21 29q24 0 24 -16q2 -18 -30 -31q-2 0 -5 4l-6 6q-4 2 -4 8zM1034 647q2 23 47 121q17 -2 37 -14q-4 -25 -51 -101q-25 -6 -31 -6h-2z" />
<glyph unicode="d" horiz-adv-x="1386" d="M-27 686q4 11 4 38q0 18 -2 44q-1 12 -1 22q0 38 12 54q16 -8 16 -35q-2 -43 0 -45q10 -29 29 -29q20 41 24 140.5t27 142.5q41 35 102 39q8 1 23 1q30 0 90 -3q55 -2 156 -33h17q72 0 177 -14q150 -20 195 -25q66 -31 78 -35q47 -20 79 -22q51 -37 105 -72 q53 -47 63 -111q72 -98 73 -305q0 -16 -1 -32q-8 -45 -49 -97q-49 -61 -59.5 -85.5t-51.5 -53.5t-51 -49q-63 -123 -264 -131q-104 -4 -166 -6q-23 -6 -49 -7q-33 0 -96 15q-74 18 -99 20q-66 12 -104 13q-66 0 -148 -17q-25 4 -49 37q-4 31 -4 61q0 37 8.5 112t8.5 112 t-5 71q2 20 2 43q0 41 -12 109q-14 78 -16 109h-37q-27 0 -25 24zM569 215q29 -53 66 -65q29 0 89 11q51 9 82 9h11l74 70q94 41 123 157q15 61 15 166q0 23 -1 49q-25 8 -29 47q-6 47 -8 52l-96 57q-172 47 -215 47q-45 0 -82 -12q-12 -39 -8 -47q14 -25 14 -62 q0 -12 -2 -35.5t-2 -35.5q0 -47 23 -72q0 -82 -13 -100q4 -16 4 -33q0 -29 -26 -103q-20 -53 -20 -86q0 -7 1 -14zM776 1081q0 10 25 19q8 0 18.5 -8.5t14.5 -8.5l-5 -28q-18 -4 -49 16q-4 4 -4 10zM817 504q-3 4 -3 10q0 12 15 27q6 6 15 6q22 0 22 -25q0 -23 -26 -26 q-16 -2 -23 8zM1077 -16q4 27 45 41q15 6 25 -17q-8 -20 -37 -45q-33 10 -33 21zM1231 967q0 33 12 41q9 1 17 1q36 0 45 -30q-8 -27 -21 -37q-8 -2 -16 -2q-23 0 -37 27z" />
<glyph unicode="e" horiz-adv-x="1232" d="M193 47q2 35 24 111q23 70 23 108q0 25 -7 47q12 39 13 80q0 35 -12.5 104.5t-12.5 104.5q0 18 2 37q-4 29 -12 106q-6 57 -6 109q0 47 8 86q-8 61 -8 53q0 16 8 29q10 2 21.5 23.5t17.5 25.5l143 -14q8 0 35 -10q25 18 55 18q25 0 73 -14.5t73 -14.5q18 0 35 4 q6 -4 12 -4q4 0 22.5 11.5t27.5 14.5t24 3q20 0 59 -12.5t59 -12.5q27 0 50 17q66 0 88 -21q4 -76 4 -82q-2 -49 -23 -75q-35 0 -101.5 7t-101.5 7q-49 0 -88 -12q-16 -18 -26 -52l-21 -65q-8 -59 -8 -96q0 -109 72 -148q52 -17 161 -17q43 0 95 3q16 0 37 6q6 -12 6 -31 q0 -23 -10 -53q-4 -8 -7 -59q-2 -37 -28 -47h-19q-88 0 -235 -31l-17 -15q0 -12 -6 -35.5t-6 -35.5q0 -18 8 -31q44 -36 116 -36q10 0 21 1q31 31 91 31q27 0 63 -6q31 -31 31 -80q0 -25 -8 -43q-31 -27 -80 -27q-20 0 -60.5 5.5t-60.5 5.5q-12 0 -25 -2q-28 1 -60 1t-67 -1 q-113 -4 -127 -5q-25 8 -55 9q-23 0 -69 -6.5t-68 -6.5q-33 0 -60 9q-4 2 -47 2q-33 0 -36 22zM201 -121q0 33 24 33q11 0 23 -18q-4 -10 -19 -25q-14 -4 -28 10zM666 -111l36 9l29 24q10 -24 10 -51t-18 -29l-14 25zM877 772q-2 16 14 35l29 24q10 2 18 3q19 -1 23 -13 q-4 -39 -41 -63q-12 -2 -21 -2q-18 0 -22 16zM1102 287q0 14 14 26q6 2 10 1q14 0 19 -13v-25q-2 -14 -15 -18q-14 0 -28 29z" />
<glyph unicode="f" horiz-adv-x="1333" d="M115 696q0 33 28 33q13 0 29 -14q2 -14 -4 -37t-6 -33q0 -8 4 -16q-18 0 -31 20q-20 37 -20 47zM154 223q8 25 22 25q4 2 11.5 -4t9.5 -6q-2 -10 -17 -25q-20 -6 -26 10zM190 1026q4 23 74 33q51 31 127 31q35 0 105.5 -9.5t105.5 -9.5q61 0 107 6l106 15q45 -8 88 -9h55 q68 0 111 -10q20 0 71 6q39 5 64 5q8 0 15 -1q2 -14 2 -32q0 -20 -8.5 -61.5t-8.5 -61.5q-31 -27 -76 -27q-31 0 -79 14l-76 23q-57 -6 -168 -29h-2q-37 0 -101 -75q-4 -6 -4 -15q0 -71 138 -71h4q23 0 69.5 3t69.5 3q53 0 92 -15q35 8 84 9q35 0 78 -5q14 -20 14 -47 q0 -14 -8 -52t-4 -58q-2 -16 -37 -43q-16 4 -37 4q-23 0 -76 -9q-43 -6 -69 -6h-12q-150 -18 -207 -18h-49q-4 -8 -5 -18q0 -8 5.5 -32t3.5 -36q0 -41 5 -120t5 -120q12 -16 23.5 -76.5t33.5 -80.5q-8 -14 -37 -15h-43q-35 10 -80 11q-47 0 -127 -11q-92 -10 -126 -12 q-41 -2 -170 -2q-20 16 -21 29q10 98 35 295l-23 120q-12 66 -12 125q27 53 27 129v-2q-2 0 -21 197q-2 35 -7 73t-24 58zM229 1219q39 52 96 52q9 0 19 -1q8 -18 12 -23q9 -10 21 -14q-2 -16 -41 -16q-12 0 -37 -6.5t-37 -6.5q-20 0 -33 15zM541 -98q0 27 8 49l31 -23 l34 -8l-43 -22l-12 -25q-18 0 -18 29zM862 385q0 6 2 16q6 4 13 5q18 0 14 -33q-4 0 -9 -3t-8 -3q-12 0 -12 18zM1018 315q8 6 16 7q27 0 35 -35q2 -16 -41 -39q-4 -1 -7 -1q-17 0 -17 25q0 10 14 43z" />
<glyph unicode="g" horiz-adv-x="1011" d="M59 514q5 30 5 83v19v22q0 50 4 74q4 31 28 89q18 59 113 151q49 47 227 103q12 2 31.5 -3t28.5 -5q12 0 22 8q76 8 92 8q51 0 82 -23l51 -57q4 -2 9 -2q4 0 8 2q14 4 16 4q0 -14 -31 -82q4 -8 5 -14q0 -4 -21 -45l-33 -23q-20 6 -59 35h-9q-26 0 -65 8q-47 11 -69 11 q-145 0 -232 -179h-4q-27 -31 -27 -77q0 -33 37 -144q-2 -16 8.5 -51t8.5 -51q14 -39 51 -107l31 -30q16 -16 34 -15q2 -2 25 -16q16 -12 25 -12q8 0 16 8l-21 278q8 45 41 54q18 10 50 4q33 -6 47 -7q18 0 32 9q29 4 60 4t59 -4q33 0 92 16l4 -4q-6 -29 -6 -61q0 -33 6 -89 l11 -90q0 -14 -8 -194q2 -8 17 -21.5t15 -19.5l-4 -8q-37 -4 -99.5 -43t-98.5 -43q-12 2 -27 2q-23 0 -55 -4q-26 -3 -46 -3t-34 3q-88 0 -131 30q-8 -2 -17 -2q-16 0 -69 43q-43 43 -95 140q-55 104 -88 143q-37 33 -43 178zM117 66q0 4 2 6l10 6q-4 -8 -4 -27q-8 6 -8 15z M152 1016q-2 31 45 57q10 -6 10 -12q0 -4 -2 -6l-25 -25q-14 -14 -28 -14zM160 -68l41 45l14 -38l-29 -21zM336 590l14 10q4 -4 4 -8q0 -8 -12 -12q-4 4 -6 10zM373 459l4 12q4 0 6 -4q2 -6 -4 -10v-2q-4 -4 -6 4zM485 723q19 -10 15 -37q-14 6 -15 37zM616 670l9 14 q10 -2 22 -16q4 -18 -12 -23q-20 0 -20 18q0 3 1 7zM879 453q0 14 12 32q6 -1 18 -32q-8 -16 -20 -16q-3 0 -6 1q-4 6 -4 15z" />
<glyph unicode="h" horiz-adv-x="1064" d="M-76 739q0 8 5 24.5t5 24.5t-2 17q4 16 27 20q23 2 33 -12v-35q-6 -8 -22.5 -7t-20.5 -5q4 -18 -8 -51q-16 10 -17 24zM-29 250q-1 3 -1 6q0 5 3 8q-2 4 2.5 7t4.5 8q8 1 14 -11q4 -18 -14 -24q-6 -2 -9 6zM45 936q-1 12 -1 27t1 32q2 31 16 54q39 24 117 24h6 q102 0 127 4q12 -2 41 4t39 6q31 0 39 -26q8 -63 8 -189v-192q2 -10 8 -86q3 -39 3 -67v-13q-6 -18 16 -31q31 4 90 17q6 -10 27.5 -11.5t25.5 -5.5q20 -8 27 19q0 10 14 299v5q0 31 -20 91q-6 16 14 53q0 39 12 113q11 -2 26 -2q22 0 54 4q4 0 26.5 -8t35.5 -8q14 0 24 12 q8 -4 19 -4q10 0 28.5 4t26.5 4q33 0 33 -68q0 -14 -23 -114q0 -88 -16 -219q-20 -162 -23 -215q31 -238 33 -359q-4 -14 8.5 -36.5t12.5 -28.5q0 -12 -19 -21q-20 8 -47 8q-23 0 -64.5 -9t-64.5 -9q-14 0 -43 6q-45 0 -45 27t4 75q2 24 2 43t-2 31q2 15 2 27q0 29 -10 47 q-41 20 -39 20q-4 0 -10 -2q-14 -20 -43 -20q-10 0 -27.5 2t-28.5 2q-27 0 -43 -14q-37 0 -41 -15q0 -23 9 -92q4 -35 4 -62q0 -18 -2 -32q-33 -16 -108 -20.5t-105 -16.5q-16 2 -43 -2q-33 -6 -43 -6q-35 0 -47 26q8 39 8 103q0 31 -4 93t-4 93q0 63 8 103q0 25 -7.5 73.5 t-7.5 73.5q0 29 7 55q-10 47 -11 133q0 96 -4 134q-2 14 -6 57zM483 1174q0 8 6 20q4 2 9 2q18 0 18 -14q0 -5 -2 -13q-16 -14 -25 -12q-6 6 -6 17zM981 242q0 4 4 8q6 18 14 18q2 -2 17.5 -8t15.5 -12q0 -18 -31 -19q-20 0 -20 13zM985 90q0 33 27 37q6 2 12 2q12 0 18 -12 q1 -12 5 -37q-4 -12 -21 -12h-27q-6 6 -14 22zM991 621q0 6 6 8v-21q-6 4 -6 13z" />
<glyph unicode="i" horiz-adv-x="618" d="M-76 436q0 14 15 15q6 0 12 -2q4 -8 -12 -25q-4 2 -15 12zM-53 707q0 8 8 16l14 -4l-8 -23q-4 2 -14 11zM-27 1399q0 12 9 24q18 18 43 19q18 -1 22 -19q-4 -6 -16 -49q-8 -35 -31 -41q-27 47 -27 66zM43 1006q59 26 111 26h4q23 0 45 -4q41 -20 200 -39h66q1 -7 1 -15 q0 -33 -13 -95q-20 -92 -23 -121q-14 -82 -14 -226q0 -102 31 -466q2 -16 -9 -56q-59 -20 -110 -20t-133 6q-104 8 -136 10q-6 18 -6 37q0 23 8.5 68t8.5 67q2 17 2 45q0 56 -8 156q-1 9 -1 20q0 22 3 52q6 53 6 71q0 37 -8 66q1 22 1 62q0 91 -6 274q-21 42 -21 69 q0 7 1 13zM252 1114q0 20 18.5 35.5t38.5 15.5q7 0 13 -2q-2 -16 -27 -43q-4 4 -10 4q-4 0 -11.5 -7t-11.5 -7q-6 2 -10 4zM295 -63q8 23 49 22q57 0 64 2q10 -12 61 -12q2 -14 -12 -19q-20 -6 -23 -8q-18 10 -48 12.5t-56 2.5h-35zM502 481q0 51 18 76q0 -145 6 -186 q-20 2 -20 30q-2 41 -2 43q-2 20 -2 37z" />
<glyph unicode="j" horiz-adv-x="1251" d="M252 539q0 78 49 110q6 27 37 37l29 10q23 8 24 11q10 8 51 10q35 0 47 12q59 -37 80 -55q39 -35 49 -80q2 -16 12.5 -55t10.5 -62q0 -16 -2 -31q14 2 39 0q2 -4 2 -8q0 -8 -18 -18h-13q-12 0 -33.5 -21.5t-33.5 -21.5q-61 14 -66 14q-54 18 -54 73q0 7 1 15q4 31 29 31 h24q16 4 19 27q0 14 -19 26q-88 0 -110 -47q-1 -12 -1 -24q0 -121 95 -201q16 4 33.5 -22.5t33.5 -26.5q68 6 84 41q18 20 47 71q23 299 23 410q0 154 -23 276l9 11q0 18 -7.5 53t-7.5 53q0 41 27 60q6 -2 14 -3q8 0 24.5 6.5t22.5 6.5q12 0 23 -10q8 -2 20 -3q14 0 40 4.5 t40 4.5q29 0 43 -15h5q28 0 73 19q4 2 18.5 -3t18.5 -5q6 0 14 8q23 -16 21 -47q-2 -33 -2 -58q-25 -39 -25 -57q0 -6 3 -20.5t3 -22.5t-3 -26.5t-3 -26.5q0 -18 10 -33q-8 -45 -8 -76q0 -33 8 -49q-22 -49 -22 -113v-6q0 -39 9 -115.5t9 -115.5q0 -33 -4 -60q0 -6 23 -14 q1 -4 1 -8q0 -27 -33 -63q-31 -35 -31 -60q0 -5 1 -10q-4 0 -13 -6.5t-13 -6.5q-8 0 -13 9q6 14 -6 14q-29 -14 -78 -57q-18 -14 -36.5 -30.5t-20.5 -35.5q-19 -2 -35 -2q-39 0 -63 10q-8 1 -18 1q-21 0 -48 -3q-49 -4 -65 -4q-49 0 -84 23q-14 -4 -29 -4q-25 0 -77 34.5 t-79 36.5q-92 61 -92 164v25q-8 129 -10 129v-4zM299 993q0 31 20 47q23 7 48 -32q2 -14 -12.5 -43t-14.5 -43q-20 -6 -31 14q-10 43 -10 57zM563 1040q0 16 15 17q12 -1 10 -17l-6 -12q-8 -4 -19 12zM573 1208q0 14 5 25q14 -6 14 -27v-35q0 -14 4 -22q-23 25 -23 59z M610 649q0 20 4 23.5t27 13.5q18 -6 18 -18q0 -10 -20 -23q-25 0 -29 4zM889 74q0 14 20 18l33 -20q10 -15 10 -25q0 -14 -16 -16q-6 -1 -11 -1q-12 0 -20 7q-2 4 -14 26q-2 6 -2 11zM1024 309q45 25 51 62l-4 6q-49 -33 -47 -68zM1155 895q6 41 8 104l2 103l11 -10 q0 -94 -11 -191z" />
<glyph unicode="k" horiz-adv-x="1505" d="M125 713q0 18 18 14q10 -4 17 -20v-5q-12 2 -35 11zM219 111q6 197 23 583q-8 14 -9 105q8 29 9 78q0 66 2 79q-10 8 -11 23q2 18 0 25q-4 14 -4 28q0 35 47 35q20 0 62.5 -12.5t62.5 -12.5q33 0 58 25q20 2 37 2q23 0 39 -4q41 4 90 4t92 -4q-4 -18 -24.5 -66.5 t-20.5 -74.5q0 -25 16 -50q2 -12 -4 -40q-6 -35 -6 -46q0 -16 6 -30q0 -39 8 -56q10 -4 21 -4q16 0 43 19q35 27 39 28q20 16 68 50t65 61l194 211q10 4 52 35q33 25 53 24q18 0 35 -16l41 -10l28 -29q14 -18 10 -43q-16 0 -40.5 -22.5t-30.5 -24.5l-140 -162 q-80 -88 -153 -145q-4 -18 -41 -46t-37 -48q0 -6 2 -17q29 -35 66 -104q43 -80 61 -107q43 -16 97.5 -86.5t88.5 -89.5q12 -37 66 -43q29 12 23 39l-25 25q-16 16 -16 28v13q25 20 81 20q37 -27 37 -78q0 -20 -18 -108q-4 -16 -35 -29q-37 -12 -41 -20q-16 -2 -54 -24 t-54 -22t-31 15h-6q-30 0 -64 37q-43 49 -59 53q-43 39 -51 49q-25 31 -33 68q-49 47 -131 153q-10 4 -37 41q-23 31 -45 31q-8 0 -19 -4q-20 -23 -20 -41q0 -6 2 -10q10 -10 10 -25q0 -6 -3 -20.5t-3 -22.5q0 -6 2 -18.5t2 -18.5q0 -14 -5 -41.5t-5 -42.5q0 -10 2 -20 q-6 -6 -6 -49q2 -20 12 -62q12 -35 -10 -45q-10 -8 -31 -4q-23 4 -37 4q-14 27 -57 27h-35q-20 0 -35 4l-26 14v-6q-33 6 -68 6q-61 0 -164 -26l-6 2q12 12 12 28q0 -4 -14 58zM512 1133q0 20 23 20q6 0 12 -4q-4 -16 -27 -25h-6q-2 4 -2 9zM788 158q0 25 19 24q4 -8 2 -18 q0 -27 -10 -27t-11 21zM856 874v11q0 14 18 37q2 1 4 1q7 0 7 -12q-10 -29 -29 -37zM946 -86l10 14q39 -23 33 -43q-8 0 -43 29zM1169 680q5 22 15 22h2q2 -12 -17 -22z" />
<glyph unicode="l" horiz-adv-x="1183" d="M-88 690q0 27 35 39l22 -59q-4 -8 2 -19.5t2 -19.5q-6 -6 -12 -35t-12 -29q-8 0 -21 13q4 10 4 22q0 16 -10 46t-10 42zM-33 481q0 8 6 11v-19q-6 0 -6 8zM-8 868q6 18 16 19h15q2 -12 -13 -27q-14 0 -18 8zM43 121q3 47 3 77q0 15 -1 27q19 15 19 51q0 8 -1 17 q-2 30 -2 49.5t2 30.5q-20 331 -20 502q0 48 2 83q-6 12 -6 21t6 14q12 10 64 41q6 -2 77 -16q47 -10 74 -33q141 0 180 27q12 1 23 1q74 0 102 -36q-16 -76 -16 -172q0 -43 20 -291q2 -29 2 -52q0 -39 -6 -61v-217q16 -12 37 -12q10 0 32.5 4t33.5 4q14 0 24 -4 q14 3 41.5 3t67.5 -3q23 -1 42 -1q39 0 64 5q12 0 37 8.5t39 8.5q16 0 29 -11q16 6 30 7q23 0 39 -13q10 -16 11 -35q0 -12 -5 -26q-23 -16 -23 -45q0 -7 1 -15q2 -10 12 -34.5t10 -36.5q-10 -4 -51 -4t-57 -15q-8 -4 -18 -4q-16 0 -76 23h-21q-51 0 -136.5 7t-137.5 7h-21 q2 0 -149 4q-47 1 -85 1t-67 -1q-76 -4 -143 -18q-45 6 -80 35q-4 20 -4 51q0 21 2 47zM106 -96q0 6 3 12q43 14 30 14q7 0 11 -6q-2 -12 -17 -16q-20 -8 -24 -10q-2 2 -3 6zM498 1219q6 10 16 10q20 -1 16 -21q0 -16 -18 -34q-14 6 -14 45zM555 1122q3 8 9 8q3 0 7 -2 q6 -10 -6 -22q-12 2 -10 16zM934 266q-1 4 -1 8q0 25 32 41q10 -4 26.5 5.5t20.5 9.5q1 -2 0 -4q0 -21 -47 -70q-29 0 -31 10z" />
<glyph unicode="m" horiz-adv-x="1161" d="M-96 131q2 2 4 2q6 0 16 -10t17 -10v-17q-12 -8 -23 -8q-22 0 -22 19q0 10 8 24zM-78 219q-1 3 -1 6q0 6 3 13q4 4 8 6q15 -1 15 -19q0 -20 -10 -16q-12 -2 -15 10zM-23 1094q6 14 15 14q4 -2 10 -8l-6 -13q-4 -14 -14 -12q-4 2 -5 19zM27 35q26 65 26 93v5 q-14 182 -14 266q0 125 20 230q6 31 7 76q0 31 -5.5 89t-5.5 89q0 71 17 71q4 0 8 -6q4 -16 24 -16h35q20 -10 70 -55q41 -41 78 -52q8 -27 74.5 -49t76.5 -49q6 -4 26.5 -34.5t31.5 -30.5q10 0 24 8q33 37 66 73q43 43 80 52q18 25 69 41q37 39 103 127l100 100 q51 -18 49 -41q2 -6 2 -14q0 -12 -11 -36t-11 -36q0 -8 2 -16l-6 -13q1 -10 1 -23q0 -44 -16 -112q-20 -96 -20 -135q0 -23 10 -67t10 -66q0 -29 -9 -88.5t-9 -87.5q0 -18 2 -35v-14q0 -44 10 -103l21 -115q27 -20 22 -36q-18 -18 -90 -31q-39 12 -82 12q-57 0 -108 -22h-68 q-39 0 -49 28v14q0 112 -60 289v27q-2 16 -14 20q-33 -16 -84 -118q-6 -59 -51 -60q-16 -35 -45 -34q-82 51 -141 118q-18 6 -19 -18q-1 -8 -1 -17q0 -23 7 -53q10 -49 10 -69t-6 -39q-4 -4 -4 -11q0 -6 4 -18t4 -16q0 -10 -18 -11q-14 -6 -31 -6q-14 0 -45 6.5t-49 4 t-18 14.5zM379 68q23 29 45 28q12 0 14 -14q-4 -39 -24 -59q-12 -2 -21.5 20.5t-13.5 24.5zM401 723q8 -10 18.5 -23.5t18.5 -7.5q-12 31 -37 31zM508 1004q-1 6 0 11q0 51 49 85h2q4 0 14 -8q2 -20 -28 -76q-39 -10 -39 -12h2zM543 -137q0 14 26.5 33.5t30.5 25.5 q4 -6 4 -14q0 -29 -35 -51l-24 -7q-2 6 -2 13zM850 -172q-2 6 8 20q4 4 8 5q10 0 23 -13v-20zM1051 508q-10 16 -10 32t10 33l18 31q10 0 12 -12v-21q-6 -12 -8 -45q0 -20 -13 -20q-4 0 -9 2z" />
<glyph unicode="n" horiz-adv-x="1198" d="M119 319q-1 6 -1 15q0 31 11 98q12 -11 12 -31q-2 -8 -12 -59q4 -12 -10 -23zM188 14q6 39 23 113q-6 27 -6 55q0 29 9 86.5t9 85.5q0 39 -12 70q10 63 10 207v33q0 111 12 174q0 35 -10 103.5t-10 102.5q12 2 25 27l14 25q8 0 18 -17q10 -8 23 -8q6 0 20.5 3t22.5 3 q16 0 26 -12q29 -68 154 -107q31 -35 92 -81q76 -57 99 -78q4 -14 45 -52t45 -67q25 -25 47 -18q10 8 10 22q0 6 -4 23q-2 12 0 22q14 74 14 157q0 54 -6 111q14 29 19 64q-12 76 -13 110q0 16 4 19q-4 36 -4 62v16q18 16 49 22q49 10 52 10q8 -10 16 -16l27 31 q4 -18 43 -58q53 -51 55 -55l-39 -12q-2 -14 0 -43q-16 -82 -16 -186q0 -47 4 -141.5t4 -141.5q0 -57 -4 -107q10 -139 32 -415q6 -4 7 -13q0 -4 -4.5 -14t-4.5 -16q0 -4 2 -9l-16 -32q-6 -18 -20 -19q-41 14 -119 47q-20 -4 -46 19.5t-40 23.5q-57 2 -246 72q-8 0 -43 27 h-131q-6 -2 -6 -15q0 -8 4 -22v-66q0 -43 22 -59q-18 -18 -45 -62q-96 -18 -110 -18q-25 0 -43 6q-6 4 -12 4t-16.5 -3t-14.5 -3q-10 0 -17 10zM199 1386q0 61 28 62q13 0 29 -10q-14 -23 -37 -64q-4 -4 -20 12zM514 127q6 39 33 35q10 -37 -23 -37q-6 0 -10 2zM678 965 q0 10 4 20l31 -12q-2 -10 13 -39t13 -37q8 -6 17 -35q0 -10 12 -25.5t12 -19.5t-2 -8q-14 4 -41 55v6q1 22 -27 50q-32 32 -32 45z" />
<glyph unicode="o" horiz-adv-x="1183" d="M6 897q0 12 12 21q29 14 48 14q18 0 26 -14l10 -39q-35 -14 -57 -15q-39 0 -39 33zM18 459q0 25 15 47q29 98 41 133q25 72 57 121q29 18 117 127q70 86 143 94l113 57h-1q0 -1 130 -8q76 -4 106 -45q203 -8 265 -117q-2 -31 31.5 -86t33.5 -77q0 -23 -16 -48 q-2 -14 5 -32.5t7 -24.5q0 -8 -4 -16q-16 -23 -17 -47q0 -18 12.5 -55.5t12.5 -55.5q0 -20 -8 -39q0 -53 -45 -131q-49 -90 -58 -123q-102 -68 -135 -84q-80 -41 -157 -47h-4q-34 0 -96 -28q-66 -30 -93 -31q-27 0 -53 14q-14 33 -74 57q-66 25 -78 41q-10 2 -59 60 q-16 18 -96 73q-66 43 -80 82q6 -2 10 -2q6 4 25 23q1 4 1 8q0 29 -24 79q-27 58 -27 81zM213 516q0 -156 129 -285q12 -16 60.5 -32.5t56.5 -26.5q27 -5 56 -5q15 0 30 1q29 2 86 10q43 20 101.5 53t84.5 64q2 20 32 42.5t30 37.5q0 8 -5 18q9 7 21 19q-23 53 -23 133 q0 20 2.5 60t2.5 61q0 68 -17 114q-8 10 -44 19.5t-44 19.5q-10 -2 -20 -2q-31 0 -87.5 27.5t-86.5 27.5q-27 0 -56 -14q-309 -102 -309 -342zM315 -162q0 27 7 53q14 6 30 7q16 0 53 -10.5t60 -6.5q2 -4 15.5 -15.5t13.5 -23.5q-14 -39 -35 -116q-31 -12 -56 -13 q-18 0 -32 6q-55 35 -56 119zM586 510q-2 11 -2 21q0 49 43 49q10 4 20 4q51 0 51 -88v-11q-10 -2 -20 -2q-29 0 -92 27zM698 1196q0 10 16.5 18.5t28.5 8.5q23 0 29 -27q14 -15 6 -25q-12 -8 -30 -8t-29 8zM928 -37q0 8 16 8q10 0 14 -4v-39q-6 -2 -10 -2q-19 0 -18 27 q-2 6 -2 10z" />
<glyph unicode="p" horiz-adv-x="1355" d="M80 514q2 10 12 25q13 4 29 -19q4 -29 -10 -47q-6 -4 -11 -4q-6 0 -10 20.5t-10 24.5zM131 205q0 25 16 37q21 -1 21 -9q4 -14 -25 -43l-4 -2q-4 0 -6 9zM193 1008q0 70 28 98q16 -6 39 -6q20 0 66 9q39 7 62 7h9q10 2 25 2q27 0 79 -13t79 -13q31 0 57 14q33 8 68 8 q61 0 165 -35q61 -4 240 -78q35 -14 70 -98q88 -108 88 -149q0 -23 -47 -119q-27 -53 -50 -76q-53 -94 -69 -115q-45 -57 -109 -71q-72 -55 -297 -133q-24 -8 -24 -60q0 -47 20 -127q0 -23 -26 -22q-16 0 -43 2q-28 28 -67 28h-3q-23 0 -69 -12t-68 -12q-18 0 -35 4 q-43 -25 -102 -25q-18 0 -39 2q-35 23 -35 35q0 6 2 13q26 41 26 111v5q0 14 -2 90v33q-8 53 -8 144v38v48q0 91 -6 137q4 16 4 35q0 20 -7 59t-7 59q0 25 6 47l-6 68q-4 39 -14 68zM537 1237h47q4 -8 4 -14q0 -10 -27 -33q-16 -4 -20 16q0 6 -4 31zM590 -6q4 33 22 26 q23 -6 23 -26q0 -8 -8 -10q-3 -1 -7 -1q-12 0 -30 11zM694 438q8 -27 54 -39q49 74 186 74h14q8 8 33 7t31 7q-12 12 -13 23q0 6 30 39t28 53q29 12 35 49q0 31 4 66q-10 12 -11 37v28q0 33 -22 45l-51 41q-12 14 -54.5 21.5t-53.5 20t-21 12.5q-8 -4 -52 -25q-43 20 -75 21 q-37 0 -58 -25l2 -82q2 -51 13 -82q-16 -39 -16 -110q0 -17 1 -37q3 -42 3 -74q0 -47 -7 -70zM825 164q4 12 13 12q10 0 19 -10.5t5 -20.5q-15 -9 -23 -9q-3 0 -5 1q-8 0 -9 27zM1049 285q16 47 51 51q14 -1 26 -19q-6 -37 -28 -45q-41 0 -49 13zM1151 1102q0 6 6 14 q14 0 14 -8v-21q-12 0 -16 9q-4 2 -4 6z" />
<glyph unicode="q" horiz-adv-x="1363" d="M35 496q-1 15 -1 29q0 122 48 153q20 18 22 53l5 68q2 41 41 80q35 31 71 61q47 41 96 55q16 0 39 15q131 37 211 37q117 0 142 -52q29 -20 94 -22t84 -10q43 -20 127 -101q6 -8 6 -20q0 -8 -6 -24.5t-6 -24.5q0 -14 16 -25q0 -31 16.5 -87t16.5 -87q-20 -10 -21 -37 q0 -12 4 -27q4 -6 19 -57q-12 -25 -21 -104q-6 -61 -45 -88q0 -18 -24.5 -51t-27.5 -47.5t-3 -24.5q0 -16 10 -27q5 1 11 1q49 0 114 -79q-8 -6 -8 -14q0 -6 8 -14q0 -6 12 -7q0 16 5 9q30 -31 28 -39q-25 -18 -125 -80l-8 -21q-2 12 -27.5 19.5t-31.5 13.5q-86 98 -129 98 q-133 -63 -265 -63q-31 0 -61 4q-18 49 -78 57q-29 4 -100 11l-62 53q-67 129 -146 129h-7q4 14 -10.5 35.5t-16.5 29.5q-2 9 -2 37.5t2 75.5v13q0 57 -16 96zM45 963q6 61 66 77q3 2 6 2q4 0 6 -4q4 -4 0 -12q-4 -25 -33 -39q-39 -18 -45 -24zM199 438q0 -8 4 -24.5 t4 -24.5q39 -80 55 -106q39 -59 88 -74q-23 -6 -16 -25q33 -35 106 -57q94 -29 119 -41q12 -1 22 -1q87 0 115 44q12 18 -10 29q-31 10 -72 49q-33 31 -65 61l-2 13q23 18 57 59q27 23 78 55l29 -37q14 -18 37 -24q14 -23 49 -47q23 -2 24 16l4 37q33 39 43 88q-2 12 -2 45 t2 86q1 11 1 21q0 67 -23 104q-29 27 -21 35h-12q-33 25 -31 47q-4 33 -41 35q-49 4 -59 12q-10 23 -49 31q-31 2 -62 6q-25 12 -55 12q-51 0 -96 -28q-70 0 -131 -76q-55 -16 -64 -84q-4 -33 -10 -117q-6 -10 -6 -20q0 -8 4 -26.5t4 -29.5q0 -10 -2 -18q-16 -6 -16 -25z M481 479q4 10 11 23l8 6q4 -2 8 -8q4 -9 0 -17q-4 -10 -21 -24q-7 4 -7 13q0 3 1 7zM592 483q-2 3 -2 7q0 12 14 32q6 6 19 6q14 0 14 -10q0 -4 -4 -10q-10 -10 -41 -25zM637 -66q6 14 20 19q19 6 23 -27q-18 -11 -30 -11q-4 0 -7 1q-7 3 -7 11q0 3 1 7zM1186 696 q0 37 43 45q10 0 49 -39q8 -14 8 -34q0 -18 -6 -43q-2 -2 -37 -54q-23 -33 -47 -47q-8 8 -2 23q8 20 8 47q0 16 -8 51t-8 51zM1202 279q0 18 66 51q5 1 9 1q16 0 19 -14q0 -53 -28 -71h-3q-11 0 -31 16q-22 17 -32 17z" />
<glyph unicode="r" horiz-adv-x="1292" d="M78 289q0 8 8 20q4 0 11 8.5t12 8.5q4 -3 10 -9q-10 -23 -10 -26q-8 -14 -23 -17q-8 6 -8 15zM174 98q6 25 6 76q18 25 19 62q0 12 -2 38.5t-2 38.5v78v-4q2 0 16 279q-6 41 -6 98v61l2 66v-4q0 57 -8 96l6 18l4 -2l2 2q-6 16 -6 39q0 37 22 78q20 8 45 8q12 0 38 -2 t38 -2q33 0 58 15q25 0 73.5 -10.5t73.5 -10.5q14 0 29 2q20 10 57 10h33q43 -2 30 -2q37 0 60 11h6q51 0 111 -33q8 -6 102 -70q92 -47 129 -153q6 -39 6 -80q0 -82 -29 -146q-8 -29 -28 -98q-15 -51 -15 -89v-13q-16 -14 -53 -60q-63 -16 -90 -28q-47 -20 -72 -56 q-2 -27 62 -108q18 -14 59 -35q20 -25 58 -25q16 0 32 4q42 32 42 72q0 7 -1 14q-27 35 -53 29q-4 -2 -19.5 -22.5t-25.5 -20.5t-27 23q-6 8 -2 20q0 43 37 79t80 36t84 -41q25 -25 25 -60q0 -10 -4 -20q-4 -25 -17 -66q-18 -39 -55 -110q-35 -60 -97 -60h-6h-10 q-26 0 -68 -8q-51 -10 -73 -10q-47 0 -76 25q-6 20 -29.5 46.5t-29.5 37.5q-14 51 -47 100q-4 18 -15 27q-33 4 -45 -27q6 -27 2 -61q-4 -35 -4 -54v-10t-10 -7t-12 -5q-23 2 -60 -2q-43 -6 -59 -6q-20 0 -55 12q-41 12 -56 14q-49 6 -67 19q-10 -2 -40 -11.5t-46 -9.5 t-27 8zM299 1217q-1 6 -1 11q0 27 36 27h2q20 0 20 -16v-10q-4 -2 -19 -12.5t-24 -10.5q-8 0 -14 11zM330 23q8 10 18 10q8 0 27.5 -7.5t30.5 -5.5v-10q-10 -6 -21 -6q-10 2 -55 19zM436 2h13q4 -4 2 -8t-9 -4h-6v12zM559 6q4 33 23 27q22 -7 22 -27q0 -8 -8 -10 q-12 -4 -37 10zM627 797q0 -20 4 -62.5t4 -62.5q0 -23 -4 -41q12 -25 12 -62q0 -14 -2 -39.5t-2 -40.5v-30q14 -20 16 -21q2 0 9 2q16 12 86 43q55 25 79 54q47 31 93 59q47 37 47 90q2 0 35 8q18 5 14 17q-10 6 -10 18q0 6 2 15.5t2 15.5q0 10 -4 14q0 20 -19.5 50 t-23.5 40q-20 45 -56 45q-33 25 -96 35q-84 14 -104 21q-6 0 -17.5 -7.5t-19.5 -7.5q-26 -15 -26 -46q0 -6 1 -13q-20 -37 -20 -94zM707 -16q4 10 24 24q16 -8 12 -16q0 -10 -16 -19q-16 -6 -20 11zM768 586q12 41 33 51q1 1 3 1q3 0 6 -3q5 -4 9 -4q4 -18 -26 -58 q-20 0 -25 13zM1112 -51l45 -23l-35 -4z" />
<glyph unicode="s" horiz-adv-x="1058" d="M-57 121q2 23 67 102q14 10 27 10q10 0 43 -19t49 -17q55 -6 158 -31l45 4q29 6 37 23q16 -16 30 -17q8 0 17 6q20 4 43 37q2 16 -33 52q-28 29 -28 53q0 5 1 10q-10 10 -20 6l-8 -10q-10 4 -44 38.5t-61 39.5q-10 10 -37 65q-23 43 -49 57q4 14 -18.5 33t-22.5 23 q0 20 47 88q20 70 97 137q100 90 123 119q39 25 118 78q23 25 47 20q14 -5 46 -5q19 0 45 2q20 1 38 1q41 0 64 -8q51 -23 61 -29q41 -20 49 -41q39 -16 95 -119q4 -18 4 -38q0 -90 -99 -175q-53 -20 -86 -20q-16 0 -26 4q-72 72 -72 98q0 12 6 23q0 27 29 43q39 23 41 29 q10 2 28.5 -4.5t22.5 -6.5q6 0 10 4q-4 25 -28 39q-20 8 -43 19q-123 0 -166 -105q-6 -14 -6 -34q0 -23 35.5 -57t42.5 -52q33 -2 55 -35q4 -6 28 -61q16 -14 68 -62q35 -33 47 -69q49 -41 49 -86q0 -10 -2 -21q-29 -35 -47 -69q-133 -152 -246 -244q-18 2 -52 -3t-48 -5 q-31 0 -51 22q-25 0 -72 -14q-5 -1 -12 -1q-28 0 -75 14q-45 14 -73 14q-8 0 -14 -1q-8 2 -31 33q-18 25 -41 19q-20 16 -77.5 37.5t-79.5 46.5q-18 0 -45 10zM31 -137q2 4 6 8q12 6 20 6q11 0 9 -12q-11 -11 -20 -11q-3 0 -5 1q-10 2 -10 8zM170 387q0 14 16 35q4 4 11 4 q4 0 10 -2q10 -10 22 -39q-12 -18 -28 -18q-31 0 -31 20zM227 1055q27 10 70 30q14 -1 14 -26q-4 -6 -37 -29q-25 -16 -20 -39q-8 -14 -21 -10q-14 11 -14 30zM311 897q18 31 60 82q11 -1 41 15q23 12 38 13q4 0 7 -1v-15q-6 -6 -43 -22q-29 -12 -33 -31l-27 -27 q-18 -16 -30 -16q-6 0 -13 2zM346 276q0 4 2 11q25 -8 33 -13q19 -10 29 -24q2 -14 -9 -31q-2 -1 -4 -1q-12 0 -12 32q-2 2 -20.5 10t-18.5 16zM895 502q0 14 14 26l25 21q10 0 24 -10q-2 -18 -40 -50q-5 -4 -9 -4q-8 0 -14 17zM981 698q0 6 4 13q19 5 25 75q2 -10 2 -22 q0 -27 -17 -53q4 -6 0 -13l-6 -6q-8 0 -8 6z" />
<glyph unicode="t" horiz-adv-x="1574" d="M197 991q0 6 4 13q31 18 30 43q0 8 -2 16q-4 4 2 27q22 1 45 1q171 0 433 -51q125 16 206 17q45 0 86 -4q2 -6 9 -6q4 0 14 4t14 2q14 -2 41 0q33 2 45 2q43 0 62 -23q12 0 39 19q53 -6 100 -7q61 0 115 9q6 -12 6 -35q-2 -8 -2 -25v-24q0 -37 16 -58q4 -12 4 -20t-4 -12 q-25 -14 -69 -15h-45q-51 0 -76 -18q-12 0 -35 4t-35 4q-14 0 -29 -8l-22 4v2q-8 2 -14 2q-63 0 -65.5 -69.5t-31.5 -190.5v-14q0 -42 9 -113q-10 -45 -11 -166q0 -106 -18 -162v-14q0 -12 5 -34.5t5 -33.5q0 -25 -18 -34q-82 0 -121 12q-47 -10 -94 -10q-68 0 -154 20 l-147 35q-8 0 -27 -4q-16 -4 -25 6q-2 23 -2 47q0 37 7.5 111.5t7.5 111.5q26 128 26 270v11q0 43 -2 88q4 14 4 35q0 39 -14 96q0 6 5 15.5t5 11.5q-2 4 -10 10q-31 0 -86 8h-14q-10 0 -32 -5t-32 -5q-18 0 -31 16q-6 -4 -12 -4q-18 0 -22 23q-4 10 -16.5 11t-14.5 3 q4 8 4 14q0 8 -8 21.5t-8 19.5zM268 729q0 6 4 12q27 20 39 21q21 -9 21 -27q0 -10 -6 -16l-37 -12q-20 0 -21 22zM373 410q0 6 2 14q-2 16 10 43q12 -4 12 -16q0 -6 -4 -19.5t-4 -21.5q0 -6 4 -13q-4 -2 -8 -2q-12 0 -12 15zM459 -23q-2 10 24 31q4 2 9 2q8 0 16 -35 l-8 -14q-23 0 -41 16zM512 584q0 -6 8 -9q6 -2 17 0q6 3 14 3q-16 16 -14 24q-25 4 -25 -18zM1174 543q0 14 2 35q4 4 8 4q24 0 16 -41q-6 -25 -12 -25q-14 0 -14 27zM1333 1100v8h17v-8h-17z" />
<glyph unicode="u" horiz-adv-x="1204" d="M-90 1022q0 8 8 18q29 14 39 15q6 0 6 -8q0 -6 -2 -15q-18 -18 -43 -22q-8 4 -8 12zM0 301q0 6 4 18q4 4 8 5q8 0 13 -13q4 -10 0 -18l-17 -8q-8 4 -8 16zM39 991q2 18 74 27q66 -23 96 -23q33 0 53 15q41 -6 78 -6t70 6q68 12 73 14q51 0 52 -70q0 -25 -11.5 -71.5 t-11.5 -71.5q0 -23 10 -69t10 -70q0 -41 -11 -124t-11 -124q0 -35 6 -66l57 -90q35 -44 83 -44q6 0 12 1q51 20 63 29q41 23 53 43q14 72 15 162q0 68 -11 188q-10 133 -12 187q-2 90 -14 223q41 10 104 47h2q8 0 18 -16q12 -18 23 -21q25 -8 29 -10q16 -8 18 -25 q14 -156 15 -411q22 -57 22 -82t-10 -43q4 -12 -27 -56q0 -63 -12 -176q-14 -123 -16 -174q-29 -33 -101 -57q-82 -29 -108 -49q-70 -10 -187 -13l-180 -2q-14 4 -145 27q-84 14 -121 70q1 7 1 15q1 33 -13 83q-16 63 -17 92q0 23 6 45q6 78 7 168q0 92 -31 522zM342 1063 q-2 10 10 12q31 -19 31 -35q-2 -4 -8 -4q-8 0 -23 8q-4 10 -10 19zM631 387q0 21 24 45q6 -18 -14 -61h-8q-2 6 -2 16zM647 526q8 33 35 27q4 -8 4 -14q0 -14 -22 -21q-4 -2 -9.5 3t-7.5 5zM668 -55q8 8 20 4q10 -7 10 -15q0 -16 -4 -24q-27 6 -26 35zM946 -115q-1 4 -1 7 q0 6 3 8q4 1 27 -9q4 -4 6 -8q0 -6 -10 -8q-2 -1 -5 -1q-8 0 -20 11zM948 12q4 27 41 69t45 58l13 8q6 -10 6 -32q0 -16 -4 -41l-33 -33q-23 -20 -41 -18q-10 -10 -27 -11zM1077 639q1 11 15 21q10 7 18 7q3 0 6 -1q4 -5 4 -11q0 -16 -20 -28h-19q-4 6 -4 12z" />
<glyph unicode="v" horiz-adv-x="1105" d="M16 942q-2 39 44 45t302 49q2 -2 44 -30q29 -20 30 -48q-10 -23 -10 -43q0 -25 34 -78t36 -77q25 -16 44 -80t42 -78q4 -4 10 -4q12 0 24 27q0 29 26 67.5t30 52.5q6 25 53 101q33 55 33 97v9q14 37 12 49q-8 6 -8 19q0 8 2 16q29 59 82 60q49 -23 160 -60q10 -8 10 -16 t-23.5 -28.5t-25.5 -26.5q-16 -16 -38 -68.5t-44 -71.5l-66 -108q-35 -61 -49 -115q-6 -25 -32.5 -69t-32.5 -70q-25 -29 -52.5 -104.5t-52.5 -104.5q-35 -74 -88 -229q-12 -4 -27 -33q-10 -20 -28 -17q-4 8 -16.5 9.5t-16.5 7.5q-18 20 -33 14v13q0 59 -31 137 q-43 106 -47 147q-14 25 -55 141q-31 88 -70 134q-31 80 -104 237q-16 14 -30.5 63.5t-37.5 63.5zM23 485q2 10 16 27q29 0 37 -25q2 -10 -4 -23t-6 -18q-20 8 -43 39zM27 633v96q26 -20 34 -57q0 -10 -18 -39h-16zM162 -78q12 12 22 12q4 0 9 -4q10 -14 8 -20l-39 -8v20z M291 123q-2 10 12 10q16 0 16 -10q6 -12 -10 -12q-10 -4 -18 12zM430 -102q-1 3 -1 5q0 6 7 11l21 12q22 0 26 -12q-14 -27 -39 -27q-4 0 -14 11zM430 1057q-1 2 -1 4q0 6 9 6q13 0 19 -8q0 -20 -11 -19q-16 0 -16 17zM698 141q6 29 7 35q12 6 20 6q6 0 6 -6 q0 -10 -11 -29.5t-11 -29.5q-12 5 -12 18q0 3 1 6zM780 498q0 30 33 53q0 -10 -9 -26.5t-9 -24.5q0 -6 2 -13q-6 -6 -15 -8q-2 10 -2 19z" />
<glyph unicode="w" horiz-adv-x="1572" d="M-18 993q2 25 20 68q14 -2 42 10t38 12q17 0 27 -12q0 -18 -13 -27q-18 6 -42.5 -16t-41.5 -18q-20 -18 -30 -17zM2 836q0 14 18 24q41 12 121 39q57 55 287 129q14 2 22.5 -15.5t10.5 -19.5q2 -23 25.5 -67.5t23.5 -71.5q0 -10 -4 -23q14 -20 53 -104q-4 -8 -4 -20 q0 -16 6 -43q12 -16 23 -17q8 0 16 10q10 39 57.5 103.5t59.5 99.5q27 43 84 129q27 70 71 84q35 -12 41 -55q29 -27 65 -65t46 -76q-2 -14 -2 -31q0 -36 24 -106q23 -65 23 -103v-6q8 -8 16 -6q10 2 13 8q12 23 73 123q45 74 60 125l59 125q37 -25 129 -72q8 -16 44 -19.5 t42 -15.5q4 -39 -69 -149q-37 -76 -76 -107q-18 -45 -90 -160q-61 -98 -78 -164q-72 -131 -94 -176q-49 -102 -70 -188q-8 -8 -18 -8q-6 0 -16.5 2t-16.5 2q-12 0 -21 -10q-8 0 -32 22l-27 100q-33 14 -60.5 77t-41.5 73q-43 86 -45 88q-31 49 -72 57q-8 -10 -41 -61 q-23 -35 -27 -72q-23 -33 -57.5 -106.5t-58.5 -108.5q2 -18 -7 -49q-10 -8 -36 -8q-43 0 -109 47q-25 63 -68 195q-55 68 -75 145q-18 35 -39 154q-12 70 -37 108q-23 29 -66 84q-20 27 -20 55q-20 20 -25 19q4 8 4 18t-7 29.5t-7 28.5zM117 332q0 16 18 16q10 4 17 4 q14 0 22 -16q2 -16 -31 -33q-10 2 -24 16q-2 6 -2 13zM121 100q10 -6 55 -77q27 -43 62 -166v-39q-104 162 -117 282zM512 -143q0 23 23 22q24 0 65 -37l-76 -12q-12 14 -12 27zM614 1180q-1 3 -1 7t1 9q2 10 2 16l17 27q26 -6 18 -33q-8 -2 -24 -35q-10 0 -13 9zM629 -6 q0 29 14 29q6 2 31 -23q-6 -18 -19 -23q-2 -1 -4 -1q-10 0 -22 18zM678 989l10 29q6 16 19 20q8 -2 20 -12q6 -16 -29 -43q-8 -2 -20 6zM1073 844q10 43 39 59q8 -2 18 -14q0 -25 -38 -58q-2 -1 -4 -1q-4 0 -9 6z" />
<glyph unicode="x" horiz-adv-x="1112" d="M-59 745q14 6 26 7q27 -1 82 -64l-2 -76q-6 0 -18.5 9.5t-20.5 9.5q-6 0 -12 -4l-16 10q-4 12 -24 51q-16 32 -16 50q0 4 1 7zM8 836v9q0 30 25 40q14 -6 30 20q-4 4 -2 15q2 10 9 12l241 121q6 4 13 4q8 0 22 -8.5t23 -8.5q4 0 10 2q25 -2 37 -6q29 -10 41 -45 q0 -33 18.5 -78t42.5 -57q23 -43 78 -125q20 8 47 78q6 8 66 76q43 49 59 88q47 45 88 119l72 129q10 6 18 6q10 -4 62 -37q10 -6 65 -25q8 -1 8 -24q-10 -18 -39 -19q-31 -49 -114 -149q2 -29 -27 -79t-31 -71q-18 -41 -94 -131q-63 -76 -63 -137q0 -43 41 -92 q29 -33 34 -57q45 -37 123 -132q16 -4 41 -24q-2 -6 0 -41q4 -27 -10 -37q-47 -31 -92 -61q-53 -41 -74 -82q-10 -4 -48 -26.5t-58 -22.5q-12 0 -23 2q-25 18 -45 86.5t-43 87.5q-4 2 -16.5 32.5t-28.5 34.5q-102 -102 -111 -112q-59 -68 -75 -136q-25 -37 -49 -75 q-27 -31 -66 -31q-10 0 -20 2q-10 20 -47 39.5t-46 30.5q-18 2 -18 39q0 10 2 26q68 78 190 244q-4 8 -4 16q0 20 39 55t45 45.5t6 24.5q0 16 -20 45q-23 37 -27 45q-49 43 -104 133l-88 144q-8 35 -45 53q-33 12 -68 25zM227 422q2 4 6 8v-14q-4 2 -6 6zM408 1112 q0 31 30 31q15 -1 23 -15q-18 -25 -49 -30q-4 4 -4 14zM414 -53q4 33 22 26q15 -4 21 -18q4 -14 -6 -18q-12 -4 -37 10zM420 -8q2 10 10 12q8 0 8 -10t-12 -10q-6 0 -6 8zM530 905q10 20 45 68q20 0 21 -25q0 -4 -6 -12t-2 -18q6 -17 4 -23q-6 12 -27 10h-35zM829 473 q29 29 52 29q8 0 16 -8q6 -25 -27 -37h-28q-4 2 -13 16zM963 -111l43 -20l-35 -6z" />
<glyph unicode="y" horiz-adv-x="1525" d="M104 860q4 4 19 43l242 164q4 2 18 8t18 15q0 18 9 26q10 -8 28 -8q4 0 13 2h14q20 0 29 -16q-2 -12 -2 -24q0 -62 45 -114q12 -14 96 -102q63 -18 65 -20q39 -16 52 -39q14 -2 37.5 -32t35.5 -30q10 0 25 8q57 57 176 164q23 12 69 63.5t81 63.5q29 20 86 68 q12 -4 18 -23q10 -29 12 -30q2 -8 22.5 -31t20.5 -37q0 -8 -2 -18q8 -23 8 -33q0 -6 -2 -10q-53 -10 -102 -62l-82 -88q-25 -43 -78 -88q-108 -89 -108 -138q0 -24 12 -75q9 -38 9 -64q0 -9 -1 -16q7 -138 7 -224q0 -35 -1 -61q-2 -8 -10 -20q2 -4 10 -25q4 -14 0 -26 q-25 -16 -75 -17q-10 6 -19 6q-4 0 -25 -6q-12 -4 -24 0q-16 6 -41 6q-14 0 -44 -3t-44 -3q-31 10 -98.5 14.5t-98.5 14.5q-14 14 -14 29q0 8 6 14q20 68 21 74q0 23 -17 41q0 20 -6 75q-3 31 -3 53q0 11 1 19q-18 55 -92 174q-14 23 -59.5 57.5t-59.5 59.5q-4 14 -37 27.5 t-37 29.5q-2 33 -55 75t-57 63q-12 8 -12 21q0 2 1 5zM143 616q2 20 15 52q20 4 35 -17q20 -31 22 -30q23 -48 23 -64q-49 0 -95 59zM406 -39q10 12 20 12q6 0 8 -6q10 -12 10 -18l-38 -10v22zM487 -98q12 8 33 8h35l4 -10q-4 -14 -20 -37q-18 0 -52 39zM539 1190 q-2 9 -2 15q0 16 10 20q16 -1 12 -17q-10 -20 -20 -18zM662 1130l6 9q6 -4 16 -17v-12q-16 0 -22 20zM758 -76l133 -10l-39 -23l-45 15zM1223 1229q-1 1 -1 2q0 6 17 6q25 -6 25 -18q-1 -11 -11 -11q-25 6 -30 21z" />
<glyph unicode="z" horiz-adv-x="1255" d="M-16 166q-1 2 -1 5q0 14 29 30q43 23 125 96q59 57 119 115q86 78 203 176q131 111 196 184q8 4 9 29q-7 -1 -15 -1q-28 0 -71 11h-13q-35 0 -92 -8h-106q-66 0 -97 -27q-10 -2 -35.5 -15t-39.5 -13q-16 0 -31 10q-29 -4 -51 -4q-39 0 -60 12q-12 18 -12 47q0 12 2 33.5 t2 34.5q0 25 -8 43q2 27 31 37q8 2 51 12q18 -5 50 -5q16 0 36 1q63 4 90 4q12 0 44 12t50 12q29 0 43 -24q14 -6 29 -6q16 0 52 9t56 7q35 -16 76 -16q23 0 103 12q28 4 50 4q32 0 54 -8q16 -4 37 -4q27 0 65 6q66 10 90 10q39 0 70 -14q18 -59 45 -197q2 -8 17.5 -30.5 t13.5 -38.5q-14 -10 -49 -19.5t-49.5 -16.5t-47.5 -48q-27 -33 -51 -37q-158 -127 -375 -316q-14 -12 5 -22q29 8 61 6q23 -2 61 -6q35 10 117 18q76 6 115 21q12 4 20 4q10 0 45 -8q29 -6 45 -2q23 -14 23 -41q0 -12 -6 -36t-6 -36q0 -10 2 -18v-48q-4 -29 -23 -32 q-20 16 -59 0q-100 -43 -293 -62q-215 -23 -297 -49q-5 1 -10 1q-32 0 -86 -22q-64 -24 -94 -24q-27 0 -54 10q-43 55 -131 166q-25 39 -28 45q-20 25 -41 31zM72 -158q2 4 6 8q12 6 20 7q10 -1 8 -13q-14 -14 -24 -10q-10 2 -10 8zM84 432q0 12 14 31q29 16 43 16 q15 0 19 -16q0 -18 -37 -41q-6 -8 -29 -8q-10 6 -10 18zM119 1069q0 31 14 31h2l35 -17q18 -8 20 -24q-25 -10 -55 -41q-2 16 -16 51zM307 696q2 4 43 25q16 0 17 -16q-1 -9 -5 -23q-18 -25 -32 -20q-23 16 -23 34zM428 -168q14 18 83 40t87 50q49 4 90 4q70 0 117 -12 q-2 -10 -21 -16l-18 -4h-5q-33 0 -89 -24q-60 -26 -88 -26q-14 0 -31 4q-14 4 -52 -8t-52 -12q-10 0 -21 4zM498 -182q0 18 8 16q8 -4 8 -22q-4 -4 -8 -5q-4 0 -8 11zM1118 539q0 23 29 36q24 9 49 19q1 -2 1 -5q0 -19 -44 -50l-18 -7h-4q-7 0 -13 7z" />
<glyph unicode="{" />
<glyph unicode="|" />
<glyph unicode="}" />
<glyph unicode="~" horiz-adv-x="815" d="M12 1653l66 43q29 10 72 41q8 14 37.5 41.5t41.5 27.5q47 0 74 39q39 55 96 56q25 0 60 -48.5t41 -76.5q2 -8 46 -37t48 -39q8 -29 51 -55q53 39 166 141q0 -14 25 -39q24 -11 69 -72q-84 -27 -194 -106q-137 -96 -191 -123l-141 129q-8 -6 -17 -6q-14 0 -24 26 q-35 96 -84 97q-8 0 -26.5 -18.5t-24.5 -20.5q-23 -10 -29 -19q-16 -16 -86 -47q-16 12 -41 39q-8 14 -35 27zM254 1550l45 -14l25 -41l-35 6zM625 1757q37 25 45 19q8 -4 8 -29q0 -12 -4 -21q-4 -16 -23 -14z" />
<glyph unicode="&#xa1;" />
<glyph unicode="&#xa2;" horiz-adv-x="1114" d="M-2 1063q0 18 32.5 44t37.5 34q0 16 23.5 47t25.5 41q115 215 260 215q12 -6 24 -6q41 0 39 45q0 16 -20 235q-2 29 26 29q20 0 33 -8q16 0 49 -5t50 -5q23 0 38 10q27 -4 27 -39q-2 -47 2 -55q6 -29 -2 -80q-10 -63 -10 -80q0 -63 51 -90q37 -2 82 -37q55 -43 76 -51 q59 -43 59 -117q0 -35 -51 -156q-29 -66 -82 -73q-39 6 -139 24q-127 27 -127 143q0 33 16 66q51 74 88 74q10 0 21 -4q2 -2 22 -9q14 -6 15 -16q0 -6 -5 -14q-25 -25 -24 -39q6 -45 74 -94q37 -6 55 38q0 25 -49 144q-20 2 -72.5 23.5t-81.5 21.5q-35 0 -61 -27 q-51 -2 -86 -41q-27 -39 -52 -75q-41 -113 -40 -199q0 -96 49 -158l98 -74q57 -35 111 -34q88 0 135 67v76q6 47 33 61l75 -6q39 2 68 27q14 4 29 4q53 0 67 -53q0 -174 -113 -240q-35 -2 -101 -33.5t-103 -33.5q-20 -29 -21 -95q2 -84 -4 -102q-2 -6 -2 -16q0 -12 9.5 -39 t9.5 -39q0 -23 -21 -37q-33 -10 -96 -6l-105 6q-14 61 -14 129q0 66 14 125q0 39 -24 57l-29 6q-90 66 -176 162q-51 59 -158 180l-8 82q-10 51 -45 56q-2 6 -2 14zM158 1042q-2 -12 18 -24q8 -6 14 -4q4 8 5 14q0 16 -29 25q-4 0 -8 -11zM176 518q0 12 10 27l19 14 q12 -4 14 -20q4 -18 -4 -33l-29 -10q-10 10 -10 22zM252 1585q-4 14 2 31q-2 27 27 26q24 0 24 -20q0 -6 -2 -12q0 -39 -29 -39q-20 -6 -22 14zM440 936q0 16 15 25q23 0 22 -23q0 -16 -12 -16q-10 0 -25 14zM635 154q-2 20 12 24t29 -6l2 -8q0 -20 -12 -21q-25 0 -31 11z M723 399q0 39 10 62q10 -29 10 -117l-10 -14q-10 29 -10 69zM805 1737q0 -10 12 45q6 4 14 4q29 0 39 -47q-8 -35 -32 -35q-6 0 -17 4q-16 10 -16 29z" />
<glyph unicode="&#xa3;" />
<glyph unicode="&#xa4;" />
<glyph unicode="&#xa5;" />
<glyph unicode="&#xa6;" />
<glyph unicode="&#xa7;" />
<glyph unicode="&#xa8;" />
<glyph unicode="&#xa9;" />
<glyph unicode="&#xaa;" />
<glyph unicode="&#xab;" />
<glyph unicode="&#xac;" />
<glyph unicode="&#xae;" />
<glyph unicode="&#xaf;" />
<glyph unicode="&#xb0;" />
<glyph unicode="&#xb1;" />
<glyph unicode="&#xb2;" />
<glyph unicode="&#xb3;" />
<glyph unicode="&#xb4;" />
<glyph unicode="&#xb6;" />
<glyph unicode="&#xb7;" />
<glyph unicode="&#xb8;" />
<glyph unicode="&#xb9;" />
<glyph unicode="&#xba;" />
<glyph unicode="&#xbb;" />
<glyph unicode="&#xbc;" />
<glyph unicode="&#xbd;" />
<glyph unicode="&#xbe;" />
<glyph unicode="&#xbf;" />
<glyph unicode="&#xc0;" />
<glyph unicode="&#xc1;" />
<glyph unicode="&#xc2;" />
<glyph unicode="&#xc3;" />
<glyph unicode="&#xc4;" horiz-adv-x="720" />
<glyph unicode="&#xc5;" />
<glyph unicode="&#xc6;" />
<glyph unicode="&#xc7;" horiz-adv-x="720" />
<glyph unicode="&#xc8;" />
<glyph unicode="&#xc9;" />
<glyph unicode="&#xca;" />
<glyph unicode="&#xcb;" />
<glyph unicode="&#xcc;" />
<glyph unicode="&#xcd;" />
<glyph unicode="&#xce;" />
<glyph unicode="&#xcf;" />
<glyph unicode="&#xd0;" />
<glyph unicode="&#xd1;" horiz-adv-x="1499" d="M-78 326q-4 14 6 20q3 -15 9 -35q-10 0 -15 15zM25 55l12 92q8 47 24 84q-4 14 -2 66q2 41 -14 61q4 70 31 193q0 41 -10.5 123t-10.5 123q0 61 21 106q-20 47 -21 109q0 35 8.5 101.5t8.5 100.5q0 43 -11 78q8 23 36 57.5t36 51.5q27 6 68 -19q29 -23 59 -43 q6 -6 127 -88q78 -53 111 -110q23 -16 90 -51q59 -29 90 -58q125 -78 272 -188l33 -49q20 -31 47 -31q20 -4 39 51q0 223 12 453q2 27 -16 81t-18 78q0 47 51 66q18 -6 37 -6q25 0 68.5 17.5t68.5 17.5q12 0 22 -2l21 -31q14 -98 10 -215l-6 -219v-240q10 -94 17 -279.5 t18 -277.5q-4 -39 2 -116.5t6 -112.5q0 -82 -21 -127l-26 -60q-23 6 -60 62q-29 45 -73 35q-68 53 -178 122q-178 111 -183 113q-47 2 -132 55.5t-128 57.5q-31 25 -84 24h-88q-25 -12 -31 -59q-4 -37 -6 -74q23 -35 23 -88q0 -125 -66 -125q-12 0 -37.5 7.5t-40.5 7.5 q-20 0 -34 -13q-2 2 -74 0q-47 0 -66 23zM238 1571l65 43q29 10 72 41q8 14 37.5 41.5t42.5 27.5q47 0 73 39q39 55 97 56q25 0 59.5 -48.5t40.5 -76.5q2 -8 46 -37t48 -39q8 -29 51 -55q53 39 166 141q0 -14 25 -39q24 -11 69 -72q-84 -27 -194 -106q-137 -96 -191 -123 l-141 129q-8 -6 -16 -6q-14 0 -25 26q-35 96 -84 97q-8 0 -26.5 -17.5t-24.5 -20.5t-41 -30q4 2 14 6q0 -4 9 -4q0 -20 -17 -47q-27 -8 -33 14q-2 10 2 17q-23 -12 -49 -23q-16 12 -41 39q-8 14 -34 27zM240 -156q0 23 20 27q20 0 21 -18q0 -8 -5.5 -17.5t-15.5 -5.5 q-20 4 -20 6v8zM610 76l6 18q10 4 29 -33v-18q-6 2 -29 12q-8 8 -6 21zM938 999q27 47 47 41q4 -16 -22 -65q-4 -4 -9 -4q-16 0 -16 28zM1417 1487q0 10 33 33q8 4 14 4q15 -1 17 -19t-6 -32q-6 -6 -13 -7q-6 0 -19 6.5t-24 4.5q-2 6 -2 10z" />
<glyph unicode="&#xd2;" />
<glyph unicode="&#xd3;" />
<glyph unicode="&#xd4;" />
<glyph unicode="&#xd5;" />
<glyph unicode="&#xd6;" />
<glyph unicode="&#xd8;" />
<glyph unicode="&#xd9;" />
<glyph unicode="&#xda;" />
<glyph unicode="&#xdb;" />
<glyph unicode="&#xdc;" />
<glyph unicode="&#xdd;" />
<glyph unicode="&#xde;" />
<glyph unicode="&#xdf;" />
<glyph unicode="&#xe0;" />
<glyph unicode="&#xe1;" />
<glyph unicode="&#xe2;" />
<glyph unicode="&#xe3;" />
<glyph unicode="&#xe4;" />
<glyph unicode="&#xe5;" />
<glyph unicode="&#xe6;" />
<glyph unicode="&#xe7;" />
<glyph unicode="&#xe8;" />
<glyph unicode="&#xe9;" />
<glyph unicode="&#xea;" />
<glyph unicode="&#xeb;" />
<glyph unicode="&#xec;" />
<glyph unicode="&#xed;" />
<glyph unicode="&#xee;" />
<glyph unicode="&#xef;" />
<glyph unicode="&#xf0;" />
<glyph unicode="&#xf1;" horiz-adv-x="1259" d="M96 250q-2 10 4 14q2 -10 6 -22q-6 0 -10 8zM168 61q8 53 8 66q6 35 19 57q4 31 -13 90q4 47 23 134q0 29 -7.5 86t-7.5 86q0 43 15 75q-14 33 -15 76q0 25 5.5 71t5.5 70q0 31 -6 56q18 25 49 76q20 4 90 -43q6 -6 88 -62q55 -37 78 -78q94 -43 317 -209l23 -32 q16 -23 32 -23q14 -2 27 37q0 164 8 315q2 20 -10 58.5t-12 54.5q0 33 35 45q12 -4 26 -4q16 0 48 12t48 12q8 0 15 -2l14 -20q10 -66 8 -152l-4 -151v-168q0 -80 25 -391q-4 -27 0 -80q4 -57 4 -80q0 -55 -14 -88l-19 -43q-12 4 -41 43q-23 33 -51 25q-12 10 -252 165 q-33 0 -93.5 38t-88.5 40q-23 18 -60 19h-61q-18 -12 -23 -43q0 -23 -4 -52q16 -25 17 -61q0 -88 -45 -88q-10 0 -27.5 5t-28.5 5q-14 0 -24 -8h-51q-33 0 -48 16zM317 -86q0 16 17 18q14 0 14 -12q0 -20 -14 -16q-16 2 -17 10zM317 1122l45 31q20 6 52 29q31 47 58.5 47 t47.5 28q27 39 68 39q18 0 42.5 -33.5t28.5 -54.5q0 -8 32 -26.5t34 -26.5q6 -20 35 -39q39 29 117 98q0 -8 16 -26q18 -6 49 -49q-57 -18 -135 -74q-96 -70 -133 -88l-101 90q-4 -4 -10 -4q-12 0 -18 18q-27 68 -58 68q-6 0 -18 -12.5t-17.5 -14.5t-29.5 -20q4 2 10 4 q0 -2 6 -2q0 -14 -12 -33q-18 -6 -23 10q-2 6 3 11q-16 -8 -35 -15q-12 8 -29 27q-6 10 -25 18zM578 76l6 12q6 4 18 -22v-13q-4 0 -18 8q-6 6 -6 15zM807 723q21 33 35 29q2 -12 -17 -47q-2 -2 -6 -3q-12 0 -12 21zM1143 1063q0 8 22 22q6 4 11 5q10 -1 12 -13 q4 -29 -12 -28q-8 0 -29 10q-4 2 -4 4z" />
<glyph unicode="&#xf2;" />
<glyph unicode="&#xf3;" />
<glyph unicode="&#xf4;" />
<glyph unicode="&#xf5;" />
<glyph unicode="&#xf6;" />
<glyph unicode="&#xf7;" />
<glyph unicode="&#xf8;" />
<glyph unicode="&#xf9;" />
<glyph unicode="&#xfa;" />
<glyph unicode="&#xfb;" />
<glyph unicode="&#xfc;" />
<glyph unicode="&#xfe;" />
<glyph unicode="&#xff;" />
<glyph unicode="&#x152;" />
<glyph unicode="&#x153;" />
<glyph unicode="&#x178;" />
<glyph unicode="&#x2c6;" />
<glyph unicode="&#x2dc;" />
<glyph unicode="&#x2000;" horiz-adv-x="1027" />
<glyph unicode="&#x2001;" horiz-adv-x="2054" />
<glyph unicode="&#x2002;" horiz-adv-x="1027" />
<glyph unicode="&#x2003;" horiz-adv-x="2054" />
<glyph unicode="&#x2004;" horiz-adv-x="684" />
<glyph unicode="&#x2005;" horiz-adv-x="513" />
<glyph unicode="&#x2006;" horiz-adv-x="342" />
<glyph unicode="&#x2007;" horiz-adv-x="342" />
<glyph unicode="&#x2008;" horiz-adv-x="256" />
<glyph unicode="&#x2009;" horiz-adv-x="410" />
<glyph unicode="&#x200a;" horiz-adv-x="114" />
<glyph unicode="&#x2013;" horiz-adv-x="1159" d="M27 629q2 14 10 12q145 12 174 12q49 0 144.5 -15t144.5 -15q43 0 141 18t139 12q109 -14 185 -14q-6 0 32 6q39 6 39 -70q0 -49 -10 -124q-8 23 -22 22q-66 0 -154 -22q-31 -8 -78 -5q-57 4 -74 5q-27 0 -80 9t-79 9q-70 0 -209.5 -9t-208.5 -9q-20 0 -51 10 q-37 12 -37 26q0 10 2 31t2 31q0 25 -10 80zM365 346l55 2q43 -2 37 -22q-6 -14 -21 -19q-18 -6 -71 39zM823 342l8 27l35 -7z" />
<glyph unicode="&#x2014;" horiz-adv-x="1734" d="M37 559q0 10 18 55q119 31 150 31t141 -18q98 -2 168 0q6 0 6 -6q0 -4 -6 -13l47 -2q4 27 29 39q18 10 141 4q119 -4 172 -16q18 -4 49 -4q41 0 123 8t123 8q84 0 264 -22q20 -2 56 5t51 7q12 0 18 -6q25 -20 37 -47q4 -6 -16 -45q-4 -8 14 -68q-41 18 -55 18 q-39 4 -70 2q-20 8 -49 19l-111 4q-20 -14 -32 -20q-4 -2 -47.5 8t-51.5 10q-31 2 -30 -8q0 -2 4 -8q2 -6 0 -11q-2 -10 -72 -20q-45 -6 -82 -6q-35 0 -90 8l-84 12q-37 6 -168 -20l-25 20q-16 0 -30 -4q8 2 -154 2q-14 0 -80.5 4t-79.5 2q-96 -12 -122 -24q-14 -6 -46 -6 q-29 0 -73 6q-8 2 -8 35q0 12 -14.5 30.5t-14.5 36.5zM512 672l27 10q8 2 12 2q10 0 22 -27q6 -12 -45 -12q-18 0 -16 27zM1133 717l6 22q29 12 41 0q14 -12 4 -20zM1278 420l49 20q37 -4 109 -20l-54 -21l-57 2l-29 7z" />
<glyph unicode="&#x2018;" horiz-adv-x="657" d="M-131 1262q12 18 86 36q6 4 2 13q-6 12 -6 14q4 14 14 16q41 -33 76 -32q18 0 33 6q29 25 100 53q37 16 131 55q29 -16 35 -55v-70q18 -72 57 -211q0 -80 52 -213q55 -144 61 -210l-12 -35q-14 -2 -33 -18.5t-25 -20.5q-55 -6 -67 -8q-39 -10 -62 -31q-14 2 -23 27.5 t-14 29.5q-41 33 -67 109q-41 117 -45 121q-47 35 -101 129q-59 98 -96 133l-55 82q-29 41 -41 80z" />
<glyph unicode="&#x2019;" horiz-adv-x="821" d="M37 705q14 66 90 200q70 125 80 203q27 70 86 201q6 53 10 67q12 41 41 51q63 -41 121 -71q68 -37 92 -68q20 -12 43 -12q31 0 68 22q12 -2 14 -16q-2 -2 -8 -14q-2 -2 -2 -6t2 -7q23 -10 45 -18q27 -15 35 -31q-18 -41 -117 -145q-39 -27 -113 -121q-70 -82 -121 -111 q-8 -18 -59 -114q-39 -74 -82 -99q-6 -4 -18.5 -28.5t-26.5 -22.5q-25 31 -123 58q-10 18 -51 45z" />
<glyph unicode="&#x201a;" />
<glyph unicode="&#x201c;" horiz-adv-x="1054" d="M-51 1227q16 20 88 33q6 4 4 12q-2 4 -4 14q4 14 14 14q41 -39 80 -38q14 0 27 6q37 29 104 47l111 31q2 8 22 14q29 -18 31 -60q0 14 -4 -67q12 -74 41 -215q-4 -78 37 -215q45 -147 47 -215l-15 -35q-14 -2 -30 -14q-23 -18 -29 -21q-57 -2 -70 -4q-39 -6 -61 -27 q-14 4 -22.5 31t-12.5 31q-39 39 -59 113l-35 122q-43 39 -93 139.5t-87 137.5q-35 53 -84 166zM453 1341q0 23 12 41q25 -6 80 26t76 32q8 0 16 -2q20 -12 43 -13q18 0 54 10.5t54 10.5q53 0 54 -33q0 -6 -14.5 -23.5t-14.5 -27.5q0 -14 7 -44t7 -44q0 -31 -8 -89.5 t-8 -88.5q0 -39 29 -240q16 -108 53 -184q0 -14 -23.5 -38t-27.5 -32l-80 -24l6 8q-20 -4 -47 12q-6 8 -31 51q-12 20 -17 59.5t-26 71.5q-33 51 -24 78q2 25 -28 85.5t-24 84.5q6 12 7 27q0 18 -29 64t-31 66.5t-33.5 74t-31.5 81.5z" />
<glyph unicode="&#x201d;" horiz-adv-x="1079" d="M68 662q39 76 51 184q6 51 20 184q4 35 4 51q0 31 -10 94.5t-10 94.5q0 14 6 41.5t6 42.5q0 12 -14.5 29.5t-14.5 19.5q0 35 54 35q18 0 53 -9.5t53 -9.5q25 0 43 13q8 2 19 2q18 0 78 -31q53 -29 77 -23q13 -21 13 -41q0 -29 -27 -79q-20 -39 -39 -76q2 -23 -25.5 -69 t-27.5 -64q0 -14 6 -27q6 -25 -22.5 -86t-26.5 -86q2 -8 2 -14q0 -18 -27.5 -67.5t-23.5 -65.5q2 -25 -41 -111l-2 -4q-4 -8 -23 -10q-25 -2 -26 -2l8 -9q-27 4 -80 23q-4 10 -28.5 31.5t-24.5 38.5zM416 584q0 66 43 215q39 139 33 217q8 74 36 215q-4 84 -6 67q2 41 31 60 q63 -20 133 -40t107 -48q12 -4 26 -4q37 0 78 39q12 2 16 -15q-2 -6 -2 -12t2 -14q43 -8 48 -9q30 -8 40 -22q-8 -41 -32 -82l-49 -84q-33 -37 -84 -143q-45 -96 -91 -138q-4 -12 -32 -124q-20 -78 -58 -113q-4 -27 -32 -62q-31 25 -134 29q-14 16 -59 33z" />
<glyph unicode="&#x201e;" />
<glyph unicode="&#x2022;" />
<glyph unicode="&#x2026;" />
<glyph unicode="&#x202f;" horiz-adv-x="410" />
<glyph unicode="&#x2039;" />
<glyph unicode="&#x203a;" />
<glyph unicode="&#x205f;" horiz-adv-x="513" />
<glyph unicode="&#x2122;" />
<glyph unicode="&#x25fc;" horiz-adv-x="1228" d="M0 0v1229h1229v-1229h-1229z" />
</font>
</defs>
</svg>
